<svg xmlns="http://www.w3.org/2000/svg" width="250" height="80" fill="none"><path fill="#fff" stroke="#333" stroke-width="4" d="M2 40C2 19.013 19.013 2 40 2h200a8 8 0 0 1 8 8v30c0 20.987-17.013 38-38 38H10a8 8 0 0 1-8-8z"/><path fill="#333" d="M65.824 40.352q0 5.791-3.296 8.736Q59.264 52 53.344 52H46.88V29.152h7.168q3.585 0 6.208 1.28 2.656 1.28 4.096 3.776 1.472 2.464 1.472 6.144m-5.024.128q0-3.809-1.664-5.568-1.664-1.792-4.832-1.792h-2.592V48h2.08q7.008 0 7.008-7.52m25.255 2.752q0 4.352-2.304 6.72-2.272 2.368-6.208 2.368-2.431 0-4.352-1.056-1.887-1.056-2.975-3.072-1.088-2.048-1.088-4.96 0-4.351 2.272-6.688t6.24-2.336q2.463 0 4.352 1.056 1.887 1.056 2.975 3.072 1.089 1.984 1.088 4.896m-12.064 0q0 2.592.832 3.936.865 1.312 2.785 1.312 1.887 0 2.72-1.312.863-1.344.864-3.936 0-2.592-.864-3.872-.832-1.312-2.752-1.312-1.889 0-2.752 1.312-.832 1.28-.832 3.872m28.404 2.656q-.127-.544-.384-1.6a79 79 0 0 0-.512-2.304q-.288-1.248-.544-2.272a43 43 0 0 1-.352-1.536h-.128q-.096.48-.352 1.536-.224 1.024-.512 2.272l-.544 2.304a147 147 0 0 0-.384 1.664L97.275 52h-5.12l-4.96-17.472h4.736l2.016 7.744q.224.8.384 1.92.192 1.12.352 2.176.16 1.025.224 1.632h.128q.032-.448.128-1.184.096-.768.224-1.568.16-.8.256-1.44.128-.672.192-.896l2.144-8.384h5.248l2.048 8.384q.127.448.288 1.44.192.991.32 2.016.16 1.025.16 1.632h.128q.064-.544.224-1.568.16-1.056.352-2.208a25 25 0 0 1 .448-1.952l2.08-7.744h4.672L108.923 52h-5.184zm24.302-11.68q2.817 0 4.512 1.536 1.696 1.504 1.696 4.864V52h-4.768V41.792q0-1.888-.672-2.816-.671-.96-2.144-.96-2.175 0-2.976 1.504-.8 1.472-.8 4.256V52h-4.768V34.528h3.648l.64 2.24h.256a4.82 4.82 0 0 1 2.272-1.952 8.1 8.1 0 0 1 3.104-.608M142.577 52h-4.768V27.68h4.768zm20.854-8.768q0 4.352-2.304 6.72-2.272 2.368-6.208 2.368-2.433 0-4.352-1.056-1.888-1.056-2.976-3.072-1.089-2.048-1.088-4.96 0-4.351 2.272-6.688t6.24-2.336q2.463 0 4.352 1.056 1.887 1.056 2.976 3.072 1.088 1.984 1.088 4.896m-12.064 0q0 2.592.832 3.936.864 1.312 2.784 1.312 1.887 0 2.72-1.312.864-1.344.864-3.936t-.864-3.872q-.832-1.312-2.752-1.312-1.888 0-2.752 1.312-.832 1.28-.832 3.872m23.172-9.056q3.52 0 5.376 1.536 1.888 1.505 1.888 4.64V52h-3.328l-.928-2.368h-.128q-1.12 1.408-2.368 2.048t-3.424.64q-2.336 0-3.872-1.344-1.536-1.376-1.536-4.192 0-2.784 1.952-4.096 1.951-1.344 5.856-1.472l3.04-.096v-.768q0-1.376-.736-2.016-.704-.64-1.984-.64t-2.496.384q-1.216.352-2.432.896l-1.568-3.232q1.408-.736 3.104-1.152a15.3 15.3 0 0 1 3.584-.416m.672 9.792q-2.304.064-3.2.832t-.896 2.016q0 1.088.64 1.568.64.448 1.664.448 1.536 0 2.592-.896 1.056-.928 1.056-2.592v-1.44zm17.009 8.352q-2.913 0-4.768-2.272-1.824-2.304-1.824-6.752 0-4.48 1.856-6.784 1.855-2.304 4.864-2.304 1.887 0 3.104.736 1.215.736 1.92 1.824h.16a30 30 0 0 1-.224-1.472 16 16 0 0 1-.128-2.016v-5.6h4.768V52H198.3l-.928-2.272h-.192q-.705 1.088-1.888 1.856-1.185.736-3.072.736m1.664-3.808q1.983 0 2.784-1.152.8-1.185.832-3.52v-.512q0-2.56-.8-3.904-.768-1.344-2.88-1.344-1.569 0-2.464 1.376-.897 1.344-.896 3.904 0 2.56.896 3.872.896 1.28 2.528 1.28"/></svg>