<?xml version="1.0" encoding="UTF-8" standalone="no"?>
<svg
   id="svg8"
   width="210mm"
   height="297mm"
   version="1.1"
   viewBox="0 0 210 297"
   sodipodi:docname="logo.svg"
   inkscape:version="1.3.2 (091e20ef0f, 2023-11-25)"
   xmlns:inkscape="http://www.inkscape.org/namespaces/inkscape"
   xmlns:sodipodi="http://sodipodi.sourceforge.net/DTD/sodipodi-0.dtd"
   xmlns:xlink="http://www.w3.org/1999/xlink"
   xmlns="http://www.w3.org/2000/svg"
   xmlns:svg="http://www.w3.org/2000/svg">
  <sodipodi:namedview
     id="namedview1"
     pagecolor="#ffffff"
     bordercolor="#666666"
     borderopacity="1.0"
     inkscape:showpageshadow="2"
     inkscape:pageopacity="0.0"
     inkscape:pagecheckerboard="0"
     inkscape:deskcolor="#d1d1d1"
     inkscape:document-units="mm"
     showgrid="false"
     inkscape:zoom="2.2066112"
     inkscape:cx="241.77345"
     inkscape:cy="566.25291"
     inkscape:window-width="1920"
     inkscape:window-height="1011"
     inkscape:window-x="0"
     inkscape:window-y="32"
     inkscape:window-maximized="1"
     inkscape:current-layer="svg8" />
  <defs
     id="defs2">
    <linearGradient
       id="linearGradient13418">
      <stop
         style="stop-color:#ff004b;stop-opacity:1"
         id="stop13414"
         offset="0" />
      <stop
         style="stop-color:#f0f;stop-opacity:1"
         id="stop13416"
         offset="1" />
    </linearGradient>
    <linearGradient
       id="linearGradient13420"
       x1="33.469"
       x2="52.277"
       y1="171.686"
       y2="110.196"
       gradientUnits="userSpaceOnUse"
       xlink:href="#linearGradient13418" />
    <linearGradient
       id="linearGradient13420-3"
       x1="33.469002"
       x2="52.277"
       y1="171.686"
       y2="110.196"
       gradientUnits="userSpaceOnUse"
       xlink:href="#linearGradient13418"
       gradientTransform="matrix(0.61716775,0,0,0.61716775,41.45906,-181.17747)" />
    <filter
       style="color-interpolation-filters:sRGB;"
       inkscape:label="Drop Shadow"
       id="filter19"
       x="-0.10476892"
       y="-0.33711663"
       width="1.2095378"
       height="1.6742333">
      <feFlood
         result="flood"
         in="SourceGraphic"
         flood-opacity="0.498039"
         flood-color="rgb(0,0,0)"
         id="feFlood18" />
      <feGaussianBlur
         result="blur"
         in="SourceGraphic"
         stdDeviation="7.300000"
         id="feGaussianBlur18" />
      <feOffset
         result="offset"
         in="blur"
         dx="0.000000"
         dy="0.000000"
         id="feOffset18" />
      <feComposite
         result="comp1"
         operator="in"
         in="flood"
         in2="offset"
         id="feComposite18" />
      <feComposite
         result="comp2"
         operator="over"
         in="SourceGraphic"
         in2="comp1"
         id="feComposite19" />
    </filter>
  </defs>
  <metadata
     id="metadata5" />
  <circle
     style="fill:#ffffff;stroke:none;stroke-width:0.243809;stroke-linecap:round;stroke-linejoin:bevel;opacity:0.4"
     id="path1"
     cx="39.709866"
     cy="155.77286"
     r="12.177826"
     inkscape:export-filename="oculante.png"
     inkscape:export-xdpi="58.573666"
     inkscape:export-ydpi="58.573666" />
  <rect
     style="font-variation-settings:normal;vector-effect:none;fill:none;fill-opacity:1;stroke:none;stroke-width:2.11667;stroke-linecap:butt;stroke-linejoin:miter;stroke-miterlimit:4;stroke-dasharray:none;stroke-dashoffset:0;stroke-opacity:1;stop-color:#000000"
     id="rect1039"
     width="64"
     height="64"
     x="27.863001"
     y="190.737"
     ry="0" />
  <path
     id="path835-9"
     d="m 112.41181,34.364042 c 0,0 6.26953,-8.840905 16.70413,-8.807721 10.4346,0.03318 16.93335,11.365175 16.93335,11.365175 0,0 -6.46905,6.348905 -16.56105,6.359595 -8.7727,0.0093 -17.07643,-8.917049 -17.07643,-8.917049 z"
     style="font-variation-settings:normal;vector-effect:none;fill:#ff004b;fill-opacity:1;fill-rule:evenodd;stroke:none;stroke-width:2.11667;stroke-linecap:butt;stroke-linejoin:miter;stroke-miterlimit:4;stroke-dasharray:none;stroke-dashoffset:0;stroke-opacity:1;stop-color:#000000" />
  <circle
     style="font-variation-settings:normal;vector-effect:none;fill:#ffffff;fill-opacity:1;stroke:none;stroke-width:2.11667;stroke-linecap:butt;stroke-linejoin:miter;stroke-miterlimit:4;stroke-dasharray:none;stroke-dashoffset:0;stroke-opacity:1;stop-color:#000000"
     id="path910"
     cx="129.58"
     cy="33.644001"
     r="8" />
  <rect
     style="fill:#ff004b;fill-opacity:1;stroke:none;stroke-width:2.11667;stroke-miterlimit:4;stroke-dasharray:none;stroke-opacity:1"
     id="rect837"
     width="38.153"
     height="41.658001"
     x="59.908001"
     y="12.687"
     ry="3.7750001" />
  <path
     style="fill:#ffffff;fill-rule:evenodd;stroke:none;stroke-width:0.275831px;stroke-linecap:butt;stroke-linejoin:miter;stroke-opacity:1"
     id="path835"
     d="m 62.278374,32.804617 c 0,0 6.393998,-13.922134 16.828601,-13.88895 10.434603,0.03318 17.088276,12.907236 17.088276,12.907236 0,0 -7.211991,13.402781 -17.303999,13.41347 -8.772699,0.0093 -16.612878,-12.431756 -16.612878,-12.431756 z" />
  <path
     style="font-variation-settings:normal;vector-effect:none;fill:#ff004b;fill-opacity:1;fill-rule:evenodd;stroke:none;stroke-width:2.11667;stroke-linecap:butt;stroke-linejoin:miter;stroke-miterlimit:4;stroke-dasharray:none;stroke-dashoffset:0;stroke-opacity:1;stop-color:#000000"
     id="path841"
     d="m 75.979415,32.019756 3.007003,-1.248381 -2.475134,6.51246 -1.873713,-1.321572 0.538308,4.206905 4.59323,-1.376224 -1.546168,-0.627237 5.705937,-10.21518 -3.992453,0.150106 3.711807,-4.832462 -5.313992,1.336619 z" />
  <path
     id="path841-4"
     d="m 127.2639,33.526769 2.31365,-0.418977 -1.92821,4.233749 -1.41837,-0.650743 0.62652,3.615959 3.55863,-1.580043 -1.3593,-0.687514 3.59927,-7.206522 -2.43912,0.435111 2.14427,-3.876098 -3.12253,-0.633335 z"
     style="font-variation-settings:normal;vector-effect:none;fill:#ff004b;fill-opacity:1;fill-rule:evenodd;stroke:none;stroke-width:1.53391;stroke-linecap:butt;stroke-linejoin:miter;stroke-miterlimit:4;stroke-dasharray:none;stroke-dashoffset:0;stroke-opacity:1;stop-color:#000000" />
  <path
     style="font-variation-settings:normal;vector-effect:none;fill:#ff004b;fill-opacity:1;fill-rule:evenodd;stroke:none;stroke-width:2.11667;stroke-linecap:butt;stroke-linejoin:miter;stroke-miterlimit:4;stroke-dasharray:none;stroke-dashoffset:0;stroke-opacity:1;stop-color:#000000"
     id="path835-9-7"
     d="m 162.80902,115.80624 c 0,0 5.16675,-15.45634 15.60135,-15.42316 10.4346,0.0332 17.24616,2.53957 17.24616,2.53957 0,0 -6.78186,15.17451 -16.87386,15.1852 -8.7727,0.009 -15.97365,-2.30161 -15.97365,-2.30161 z" />
  <circle
     id="path910-5"
     cx="178.674"
     cy="109.056"
     r="7.6030002"
     style="font-variation-settings:normal;vector-effect:none;fill:#ffffff;fill-opacity:1;stroke:none;stroke-width:2.01151;stroke-linecap:butt;stroke-linejoin:miter;stroke-miterlimit:4;stroke-dasharray:none;stroke-dashoffset:0;stroke-opacity:1;stop-color:#000000" />
  <path
     style="font-variation-settings:normal;vector-effect:none;fill:#ff004b;fill-opacity:1;fill-rule:evenodd;stroke:none;stroke-width:1.28564;stroke-linecap:butt;stroke-linejoin:miter;stroke-miterlimit:4;stroke-dasharray:none;stroke-dashoffset:0;stroke-opacity:1;stop-color:#000000"
     id="path841-4-9"
     d="m 176.7472,109.61079 1.80098,-0.80013 -0.73039,3.83017 -1.28411,-0.24856 1.22747,2.82032 2.5845,-1.99259 -1.24331,-0.29023 1.5015,-6.58249 -1.89994,0.83815 0.97727,-3.58179 -2.66842,0.10366 z" />
  <circle
     style="font-variation-settings:normal;vector-effect:none;fill:#ff004b;fill-opacity:1;stroke:none;stroke-width:2.11667;stroke-linecap:butt;stroke-linejoin:miter;stroke-miterlimit:4;stroke-dasharray:none;stroke-dashoffset:0;stroke-opacity:1;stop-color:#000000"
     id="path940"
     cx="108.661"
     cy="111.346"
     r="12.276" />
  <path
     style="fill:#ffffff;fill-rule:evenodd;stroke:none;stroke-width:0.264583px;stroke-linecap:butt;stroke-linejoin:miter;stroke-opacity:1"
     id="path942"
     d="m 108.69311,101.38605 c 0,0 -2.46658,6.24645 -2.46695,10.36749 -3.5e-4,4.05205 2.35864,9.26249 2.35864,9.26249 0,0 2.5467,-4.25992 2.42386,-9.32273 -0.12969,-5.34468 -2.31555,-10.30725 -2.31555,-10.30725 z" />
  <circle
     id="path940-3"
     cx="149.192"
     cy="140.19501"
     r="12.276"
     style="font-variation-settings:normal;vector-effect:none;fill:#ff004b;fill-opacity:1;stroke:none;stroke-width:2.11667;stroke-linecap:butt;stroke-linejoin:miter;stroke-miterlimit:4;stroke-dasharray:none;stroke-dashoffset:0;stroke-opacity:1;stop-color:#000000" />
  <path
     id="path841-4-9-6"
     d="m 146.82529,142.59089 2.66548,-1.08938 -1.16479,8.71619 4.20723,-12.07006 -2.81194,1.14114 1.44638,-4.87659 -3.94931,0.14114 z"
     style="font-variation-settings:normal;vector-effect:none;fill:#ffffff;fill-opacity:1;fill-rule:evenodd;stroke:none;stroke-width:1.82499;stroke-linecap:butt;stroke-linejoin:miter;stroke-miterlimit:4;stroke-dasharray:none;stroke-dashoffset:0;stroke-opacity:1;stop-color:#000000" />
  <path
     style="font-variation-settings:normal;vector-effect:none;fill:#ffffff;fill-opacity:1;fill-rule:evenodd;stroke:none;stroke-width:1.82499;stroke-linecap:butt;stroke-linejoin:miter;stroke-miterlimit:4;stroke-dasharray:none;stroke-dashoffset:0;stroke-opacity:1;stop-color:#000000"
     id="path841-4-9-6-4"
     d="m 132.23731,175.49004 2.66548,-1.08938 -1.16479,8.71619 4.20723,-12.07006 -2.81194,1.14114 1.44638,-4.87659 -3.94931,0.14114 z" />
  <path
     style="font-variation-settings:normal;vector-effect:none;fill:#ff004b;fill-opacity:1;fill-rule:evenodd;stroke:none;stroke-width:3.61465;stroke-linecap:butt;stroke-linejoin:miter;stroke-miterlimit:4;stroke-dasharray:none;stroke-dashoffset:0;stroke-opacity:1;stop-color:#000000"
     id="path835-9-8"
     d="m 31.039367,222.92771 c 0,0 11.549977,-14.80873 29.369247,-14.75206 17.819271,0.0567 29.105851,15.45311 29.105851,15.45311 0,0 -11.565945,13.08082 -28.800154,13.09908 -14.981227,0.0154 -29.674944,-13.80013 -29.674944,-13.80013 z" />
  <circle
     style="font-variation-settings:normal;vector-effect:none;fill:#ffffff;fill-opacity:1;stroke:none;stroke-width:2.04864;stroke-linecap:butt;stroke-linejoin:miter;stroke-miterlimit:4;stroke-dasharray:none;stroke-dashoffset:0;stroke-opacity:1;stop-color:#000000"
     id="path940-3-0"
     cx="60.459999"
     cy="222.466"
     r="11.882" />
  <path
     style="font-variation-settings:normal;vector-effect:none;fill:#ff004b;fill-opacity:1;fill-rule:evenodd;stroke:none;stroke-width:2.68155;stroke-linecap:butt;stroke-linejoin:miter;stroke-miterlimit:4;stroke-dasharray:none;stroke-dashoffset:0;stroke-opacity:1;stop-color:#000000"
     id="path841-4-9-6-8"
     d="m 54.376556,224.51699 5.318577,-2.09919 -1.438336,10.33671 6.344603,-14.60273 -5.095361,1.83135 2.38316,-8.45835 z" />
  <rect
     id="rect1039-9"
     width="64"
     height="64"
     x="130.09599"
     y="207.909"
     ry="0"
     style="font-variation-settings:normal;vector-effect:none;fill:none;fill-opacity:1;stroke:none;stroke-width:2.11667;stroke-linecap:butt;stroke-linejoin:miter;stroke-miterlimit:4;stroke-dasharray:none;stroke-dashoffset:0;stroke-opacity:1;stop-color:#000000" />
  <path
     id="path835-9-8-5"
     d="m 134.77167,240.33002 c 9.57651,-2.11528 13.17215,-16.04482 27.73432,-15.88695 14.56217,0.15787 18.84356,14.17045 27.7721,15.78072 -8.66039,1.12175 -13.37654,15.04056 -27.9933,14.86707 -14.61676,-0.17349 -18.55576,-13.07082 -27.51312,-14.76084 z"
     style="font-variation-settings:normal;vector-effect:none;fill:#ff004b;fill-opacity:1;fill-rule:evenodd;stroke:none;stroke-width:3.61465;stroke-linecap:butt;stroke-linejoin:miter;stroke-miterlimit:4;stroke-dasharray:none;stroke-dashoffset:0;stroke-opacity:1;stop-color:#000000" />
  <circle
     id="path940-3-0-0"
     cx="162.69299"
     cy="239.63699"
     r="11.882"
     style="font-variation-settings:normal;vector-effect:none;fill:#ffffff;fill-opacity:1;stroke:none;stroke-width:2.04864;stroke-linecap:butt;stroke-linejoin:miter;stroke-miterlimit:4;stroke-dasharray:none;stroke-dashoffset:0;stroke-opacity:1;stop-color:#000000" />
  <path
     id="path841-4-9-6-8-4"
     d="m 157.792,241.87834 5.18901,-1.6398 -1.30876,9.87732 6.3446,-14.60273 -5.09536,1.83135 2.38316,-8.45835 z"
     style="font-variation-settings:normal;vector-effect:none;fill:#ff004b;fill-opacity:1;fill-rule:evenodd;stroke:none;stroke-width:3.61465;stroke-linecap:butt;stroke-linejoin:miter;stroke-miterlimit:4;stroke-dasharray:none;stroke-dashoffset:0;stroke-opacity:1;stop-color:#000000" />
  <path
     id="path952"
     d="m 162.55126,212.97424 v 6.95338"
     style="fill:#ff0000;fill-rule:evenodd;stroke:#ff0000;stroke-width:2;stroke-linecap:round;stroke-linejoin:bevel;stroke-miterlimit:4;stroke-dasharray:none;stroke-opacity:1" />
  <path
     style="fill:#ff0000;fill-rule:evenodd;stroke:#ff0000;stroke-width:2;stroke-linecap:round;stroke-linejoin:bevel;stroke-miterlimit:4;stroke-dasharray:none;stroke-opacity:1"
     id="path952-9"
     d="m 161.86245,259.36432 v 6.95338" />
  <path
     style="fill:#ff0000;fill-rule:evenodd;stroke:#ff0000;stroke-width:2;stroke-linecap:round;stroke-linejoin:bevel;stroke-miterlimit:4;stroke-dasharray:none;stroke-opacity:1"
     id="path952-3"
     d="m 144.94252,219.31269 4.56854,5.24194" />
  <path
     id="path952-9-9"
     d="m 174.90265,254.73731 4.56854,5.24194"
     style="fill:#ff0000;fill-rule:evenodd;stroke:#ff0000;stroke-width:2;stroke-linecap:round;stroke-linejoin:bevel;stroke-miterlimit:4;stroke-dasharray:none;stroke-opacity:1" />
  <path
     id="path952-3-0"
     d="m 179.47119,219.31269 -4.56854,5.24194"
     style="fill:#ff0000;fill-rule:evenodd;stroke:#ff0000;stroke-width:2;stroke-linecap:round;stroke-linejoin:bevel;stroke-miterlimit:4;stroke-dasharray:none;stroke-opacity:1" />
  <path
     style="fill:#ff0000;fill-rule:evenodd;stroke:#ff0000;stroke-width:2;stroke-linecap:round;stroke-linejoin:bevel;stroke-miterlimit:4;stroke-dasharray:none;stroke-opacity:1"
     id="path952-9-9-8"
     d="m 149.51106,254.73731 -4.56854,5.24194" />
  <path
     id="path835-9-8-5-7"
     style="font-variation-settings:normal;fill:url(#linearGradient13420);fill-opacity:1;fill-rule:evenodd;stroke:none;stroke-width:3.61465;stroke-linecap:butt;stroke-linejoin:miter;stroke-miterlimit:4;stroke-dasharray:none;stroke-dashoffset:0;stroke-opacity:1;stop-color:#000000"
     d="m 39.312329,127.49609 a 1,1 0 0 0 -0.999939,0.99994 v 6.95307 a 1,1 0 0 0 0.999939,0.99994 1,1 0 0 0 0.999939,-0.99994 v -6.95307 a 1,1 0 0 0 -0.999939,-0.99994 z m -17.611845,6.33967 a 1,1 0 0 0 -0.653707,0.2465 1,1 0 0 0 -0.09767,1.40973 l 4.568713,5.24257 a 1,1 0 0 0 1.4118,0.0956 1,1 0 0 0 0.0956,-1.41025 l -4.568197,-5.24205 a 1,1 0 0 0 -0.756543,-0.3421 z m 34.534843,0 a 1,1 0 0 0 -0.75706,0.3421 l -4.568196,5.24205 a 1,1 0 0 0 0.0956,1.41025 1,1 0 0 0 1.412317,-0.0956 l 4.568197,-5.24257 a 1,1 0 0 0 -0.09767,-1.40973 1,1 0 0 0 -0.65319,-0.2465 z m -16.968473,6.12986 c -14.562058,-0.15787 -18.157784,13.7716 -27.734225,15.88688 8.957291,1.69002 12.896402,14.58737 27.51305,14.76086 14.61664,0.17349 19.332805,-13.74512 27.993123,-14.86679 -8.928468,-1.61027 -13.209898,-15.62308 -27.771948,-15.78095 z m 0.187069,4.96714 a 10.226954,10.226954 0 0 1 10.227282,10.22676 10.226954,10.226954 0 0 1 -10.227282,10.22677 10.226954,10.226954 0 0 1 -10.226766,-10.22677 10.226954,10.226954 0 0 1 10.226766,-10.22676 z m 0.109554,6.8249 a 3.2310669,3.2310669 0 0 0 -3.231328,3.23133 3.2310669,3.2310669 0 0 0 3.231328,3.23081 3.2310669,3.2310669 0 0 0 3.23081,-3.23081 3.2310669,3.2310669 0 0 0 -3.23081,-3.23133 z m -13.288595,17.50178 a 1,1 0 0 0 -0.75706,0.34416 l -4.568713,5.24206 a 1,1 0 0 0 0.09767,1.41025 1,1 0 0 0 1.41025,-0.0977 l 4.568197,-5.24206 a 1,1 0 0 0 -0.0956,-1.41025 1,1 0 0 0 -0.65474,-0.24649 z m 25.386047,0 a 1,1 0 0 0 -0.655257,0.24649 1,1 0 0 0 -0.0956,1.41025 l 4.568196,5.24206 a 1,1 0 0 0 1.41025,0.0977 1,1 0 0 0 0.09767,-1.41025 l -4.568197,-5.24206 a 1,1 0 0 0 -0.75706,-0.34416 z m -13.037964,4.6271 a 1,1 0 0 0 -0.999938,0.99994 v 6.95358 a 1,1 0 0 0 0.999938,0.99994 1,1 0 0 0 0.999939,-0.99994 v -6.95358 a 1,1 0 0 0 -0.999939,-0.99994 z"
     inkscape:export-filename="oculante.png"
     inkscape:export-xdpi="58.573666"
     inkscape:export-ydpi="58.573666" />
  <path
     id="path841-4-9-6-8-4-9"
     d="m 88.05239,160.32369 3.960467,-1.25156 -0.9989,7.53878 4.842461,-11.14541 -3.888989,1.39776 1.818926,-6.45576 z"
     style="font-variation-settings:normal;fill:#ff004b;fill-opacity:1;fill-rule:evenodd;stroke:none;stroke-width:2.75885;stroke-linecap:butt;stroke-linejoin:miter;stroke-miterlimit:4;stroke-dasharray:none;stroke-dashoffset:0;stroke-opacity:1;stop-color:#000000" />
  <g
     id="path952-3-6">
    <path
       style="color:#000000;fill:#ff0000;fill-rule:evenodd;stroke-width:2;stroke-linecap:round;stroke-linejoin:bevel"
       id="path13307"
       d="m 21.703295,134.83523 4.56854,5.24194" />
  </g>
  <path
     id="path835-9-8-5-6"
     d="m 68.751431,267.60306 c 9.57651,-2.11528 13.17215,-16.04482 27.73432,-15.88695 14.562169,0.15787 22.113469,9.21752 27.772099,15.78072 -8.66039,1.12175 -13.37654,15.04056 -27.993299,14.86707 -14.61676,-0.17349 -18.55576,-13.07082 -27.51312,-14.76084 z"
     style="font-variation-settings:normal;fill:#ff004b;fill-opacity:1;fill-rule:evenodd;stroke:none;stroke-width:3.61465;stroke-linecap:butt;stroke-linejoin:miter;stroke-miterlimit:4;stroke-dasharray:none;stroke-dashoffset:0;stroke-opacity:1;stop-color:#000000" />
  <circle
     id="path940-3-0-0-7"
     cx="96.672997"
     cy="266.91"
     r="11.882"
     style="font-variation-settings:normal;fill:#ffffff;fill-opacity:1;stroke:none;stroke-width:2.04864;stroke-linecap:butt;stroke-linejoin:miter;stroke-miterlimit:4;stroke-dasharray:none;stroke-dashoffset:0;stroke-opacity:1;stop-color:#000000" />
  <path
     id="path952-35"
     d="m 96.531021,240.24728 v 6.95338"
     style="fill:#ff0000;fill-rule:evenodd;stroke:#ff0000;stroke-width:2;stroke-linecap:round;stroke-linejoin:bevel;stroke-miterlimit:4;stroke-dasharray:none;stroke-opacity:1" />
  <path
     style="fill:#ff0000;fill-rule:evenodd;stroke:#ff0000;stroke-width:2;stroke-linecap:round;stroke-linejoin:bevel;stroke-miterlimit:4;stroke-dasharray:none;stroke-opacity:1"
     id="path952-9-6"
     d="m 95.842211,286.63736 v 6.95338" />
  <path
     style="fill:#ff0000;fill-rule:evenodd;stroke:#ff0000;stroke-width:2;stroke-linecap:round;stroke-linejoin:bevel;stroke-miterlimit:4;stroke-dasharray:none;stroke-opacity:1"
     id="path952-3-2"
     d="m 78.922281,246.58573 4.56854,5.24194" />
  <path
     id="path952-9-9-9"
     d="m 108.88241,282.01035 4.56854,5.24194"
     style="fill:#ff0000;fill-rule:evenodd;stroke:#ff0000;stroke-width:2;stroke-linecap:round;stroke-linejoin:bevel;stroke-miterlimit:4;stroke-dasharray:none;stroke-opacity:1" />
  <path
     id="path952-3-0-1"
     d="m 113.45095,246.58573 -4.56854,5.24194"
     style="fill:#ff0000;fill-rule:evenodd;stroke:#ff0000;stroke-width:2;stroke-linecap:round;stroke-linejoin:bevel;stroke-miterlimit:4;stroke-dasharray:none;stroke-opacity:1" />
  <path
     style="fill:#ff0000;fill-rule:evenodd;stroke:#ff0000;stroke-width:2;stroke-linecap:round;stroke-linejoin:bevel;stroke-miterlimit:4;stroke-dasharray:none;stroke-opacity:1"
     id="path952-9-9-8-2"
     d="m 83.490821,282.01035 -4.56854,5.24194" />
  <path
     id="path841-4-9-6-3"
     d="m 94.172655,268.46126 2.66548,-1.08938 -1.16479,8.71619 4.20723,-12.07006 -2.81194,1.14114 1.44638,-4.87659 -3.94931,0.14114 z"
     style="font-variation-settings:normal;vector-effect:none;fill:#ff004b;fill-opacity:1;fill-rule:evenodd;stroke:none;stroke-width:1.82499;stroke-linecap:butt;stroke-linejoin:miter;stroke-miterlimit:4;stroke-dasharray:none;stroke-dashoffset:0;stroke-opacity:1;stop-color:#000000" />
  <path
     style="fill:#ff004b;fill-opacity:1;stroke:none;stroke-width:0.264583px;stroke-linecap:butt;stroke-linejoin:miter;stroke-opacity:1"
     id="path11641"
     d="m 70.368345,202.02579 c 0,0 6.516396,-3.83691 13.22088,-3.70704 6.704489,0.12987 14.220339,4.25955 14.220339,4.25955 l -14.404182,-9.30735 z" />
  <rect
     style="fill:#f9f9f9;stroke-width:1.13681;filter:url(#filter19)"
     id="rect1"
     width="167.22517"
     height="51.970146"
     x="36.273079"
     y="-111.39783"
     ry="5.0061426"
     inkscape:export-filename="banner.png"
     inkscape:export-xdpi="96"
     inkscape:export-ydpi="96" />
  <path
     id="path835-9-8-5-7-3"
     style="font-variation-settings:normal;fill:url(#linearGradient13420-3);fill-opacity:1;fill-rule:evenodd;stroke:none;stroke-width:2.23084;stroke-linecap:butt;stroke-linejoin:miter;stroke-miterlimit:4;stroke-dasharray:none;stroke-dashoffset:0;stroke-opacity:1;stop-color:#000000"
     d="m 65.721362,-102.49099 a 0.61716775,0.61716775 0 0 0 -0.617131,0.61713 v 4.291215 a 0.61716775,0.61716775 0 0 0 0.617131,0.61713 0.61716775,0.61716775 0 0 0 0.617129,-0.61713 v -4.291215 a 0.61716775,0.61716775 0 0 0 -0.617129,-0.61713 z m -10.869463,3.912645 a 0.61716775,0.61716775 0 0 0 -0.403447,0.15213 0.61716775,0.61716775 0 0 0 -0.06028,0.87004 l 2.819662,3.23554 a 0.61716775,0.61716775 0 0 0 0.871318,0.059 0.61716775,0.61716775 0 0 0 0.059,-0.87036 l -2.819344,-3.23522 a 0.61716775,0.61716775 0 0 0 -0.466913,-0.21113 z m 21.313785,0 a 0.61716775,0.61716775 0 0 0 -0.467231,0.21113 l -2.819342,3.235221 a 0.61716775,0.61716775 0 0 0 0.05903,0.870361 0.61716775,0.61716775 0 0 0 0.871642,-0.059 l 2.819341,-3.235542 a 0.61716775,0.61716775 0 0 0 -0.06029,-0.87004 0.61716775,0.61716775 0 0 0 -0.403125,-0.15213 z m -10.472388,3.783146 c -8.987232,-0.09743 -11.206399,8.499388 -17.116669,9.80487 5.528151,1.043026 7.959243,9.002854 16.980167,9.109926 9.020923,0.107073 11.931583,-8.483044 17.276452,-9.175303 -5.510361,-0.993806 -8.152724,-9.642061 -17.13995,-9.739493 z m 0.115453,3.065559 a 6.3117461,6.3117461 0 0 1 6.311945,6.311626 6.3117461,6.3117461 0 0 1 -6.311945,6.311632 6.3117461,6.3117461 0 0 1 -6.31163,-6.311632 6.3117461,6.3117461 0 0 1 6.31163,-6.311626 z m 0.06762,4.212107 a 1.9941103,1.9941103 0 0 0 -1.994272,1.994273 1.9941103,1.9941103 0 0 0 1.994272,1.993952 1.9941103,1.9941103 0 0 0 1.993951,-1.993952 1.9941103,1.9941103 0 0 0 -1.993951,-1.994273 z m -8.201293,10.801534 a 0.61716775,0.61716775 0 0 0 -0.467233,0.212405 l -2.819662,3.23523 a 0.61716775,0.61716775 0 0 0 0.06028,0.870361 0.61716775,0.61716775 0 0 0 0.870361,-0.06029 l 2.819344,-3.235231 a 0.61716775,0.61716775 0 0 0 -0.059,-0.870361 0.61716775,0.61716775 0 0 0 -0.404084,-0.152126 z m 15.66745,0 a 0.61716775,0.61716775 0 0 0 -0.40441,0.152126 0.61716775,0.61716775 0 0 0 -0.05903,0.870361 l 2.81935,3.235231 a 0.61716775,0.61716775 0 0 0 0.870356,0.06029 0.61716775,0.61716775 0 0 0 0.06029,-0.870361 l -2.81935,-3.23523 a 0.61716775,0.61716775 0 0 0 -0.467231,-0.212405 z m -8.046612,2.855698 a 0.61716775,0.61716775 0 0 0 -0.617128,0.61713 v 4.291526 a 0.61716775,0.61716775 0 0 0 0.617128,0.61713 0.61716775,0.61716775 0 0 0 0.617131,-0.61713 v -4.291526 a 0.61716775,0.61716775 0 0 0 -0.617131,-0.61713 z" />
  <g
     id="path952-3-6-5"
     transform="matrix(0.73504337,0,0,0.73504337,40.466385,-199.60463)">
    <path
       style="color:#000000;fill:#ff0000;fill-rule:evenodd;stroke-width:2;stroke-linecap:round;stroke-linejoin:bevel"
       id="path13307-6"
       d="m 21.703295,134.83523 4.56854,5.24194" />
  </g>
  <text
     xml:space="preserve"
     style="font-style:normal;font-variant:normal;font-weight:300;font-stretch:normal;font-size:17.8424px;line-height:1.25;font-family:'Fira Sans';-inkscape-font-specification:'Fira Sans, Light';font-variant-ligatures:normal;font-variant-caps:normal;font-variant-numeric:normal;font-variant-east-asian:normal;fill:#000000;fill-opacity:1;stroke:none;stroke-width:0.446061"
     x="115.76213"
     y="-78.882431"
     id="text19"><tspan
       sodipodi:role="line"
       id="tspan19"
       style="font-style:normal;font-variant:normal;font-weight:300;font-stretch:normal;font-size:17.8424px;font-family:'Fira Sans';-inkscape-font-specification:'Fira Sans, Light';font-variant-ligatures:normal;font-variant-caps:normal;font-variant-numeric:normal;font-variant-east-asian:normal;stroke-width:0.446061"
       x="115.76213"
       y="-78.882431">oculante</tspan></text>
</svg>
