<?xml version="1.0" encoding="UTF-8" standalone="no"?>
<svg
   xmlns:dc="http://purl.org/dc/elements/1.1/"
   xmlns:cc="http://creativecommons.org/ns#"
   xmlns:rdf="http://www.w3.org/1999/02/22-rdf-syntax-ns#"
   xmlns:svg="http://www.w3.org/2000/svg"
   xmlns="http://www.w3.org/2000/svg"
   xmlns:sodipodi="http://sodipodi.sourceforge.net/DTD/sodipodi-0.dtd"
   xmlns:inkscape="http://www.inkscape.org/namespaces/inkscape"
   sodipodi:docname="logo.svg"
   inkscape:version="1.0 (4035a4f, 2020-05-01)"
   id="svg8"
   version="1.1"
   viewBox="0 0 210 297"
   height="297mm"
   width="210mm">
  <defs
     id="defs2" />
  <sodipodi:namedview
     inkscape:window-maximized="0"
     inkscape:window-y="41"
     inkscape:window-x="0"
     inkscape:window-height="1301"
     inkscape:window-width="1470"
     showgrid="false"
     inkscape:document-rotation="0"
     inkscape:current-layer="layer1"
     inkscape:document-units="mm"
     inkscape:cy="883.39966"
     inkscape:cx="328.50436"
     inkscape:zoom="0.98994949"
     inkscape:pageshadow="2"
     inkscape:pageopacity="0.0"
     borderopacity="1.0"
     bordercolor="#666666"
     pagecolor="#ffffff"
     id="base" />
  <metadata
     id="metadata5">
    <rdf:RDF>
      <cc:Work
         rdf:about="">
        <dc:format>image/svg+xml</dc:format>
        <dc:type
           rdf:resource="http://purl.org/dc/dcmitype/StillImage" />
        <dc:title></dc:title>
      </cc:Work>
    </rdf:RDF>
  </metadata>
  <g
     id="layer1"
     inkscape:groupmode="layer"
     inkscape:label="Layer 1">
    <rect
       ry="0"
       y="190.73746"
       x="27.862671"
       height="64"
       width="64"
       id="rect1039"
       style="font-variation-settings:normal;opacity:1;vector-effect:none;fill:none;fill-opacity:1;stroke:none;stroke-width:2.11667;stroke-linecap:butt;stroke-linejoin:miter;stroke-miterlimit:4;stroke-dasharray:none;stroke-dashoffset:0;stroke-opacity:1;stop-color:#000000;stop-opacity:1" />
    <path
       style="font-variation-settings:normal;opacity:1;vector-effect:none;fill:#ff004b;fill-opacity:1;fill-rule:evenodd;stroke:none;stroke-width:2.11667;stroke-linecap:butt;stroke-linejoin:miter;stroke-miterlimit:4;stroke-dasharray:none;stroke-dashoffset:0;stroke-opacity:1;stop-color:#000000;stop-opacity:1"
       d="m 112.41181,34.364042 c 0,0 6.26953,-8.840905 16.70413,-8.807721 10.4346,0.03318 16.93335,11.365175 16.93335,11.365175 0,0 -6.46905,6.348905 -16.56105,6.359595 -8.7727,0.0093 -17.07643,-8.917049 -17.07643,-8.917049 z"
       id="path835-9"
       sodipodi:nodetypes="cscsc" />
    <circle
       r="8"
       cy="33.644096"
       cx="129.58037"
       id="path910"
       style="font-variation-settings:normal;opacity:1;vector-effect:none;fill:#ffffff;fill-opacity:1;stroke:none;stroke-width:2.11667;stroke-linecap:butt;stroke-linejoin:miter;stroke-miterlimit:4;stroke-dasharray:none;stroke-dashoffset:0;stroke-opacity:1;stop-color:#000000;stop-opacity:1" />
    <rect
       ry="3.7751923"
       y="12.686815"
       x="59.908222"
       height="41.657532"
       width="38.153244"
       id="rect837"
       style="fill:#ff004b;fill-opacity:1;stroke:none;stroke-width:2.11667;stroke-miterlimit:4;stroke-dasharray:none;stroke-opacity:1" />
    <path
       sodipodi:nodetypes="cscsc"
       id="path835"
       d="m 62.278374,32.804617 c 0,0 6.393998,-13.922134 16.828601,-13.88895 10.434603,0.03318 17.088276,12.907236 17.088276,12.907236 0,0 -7.211991,13.402781 -17.303999,13.41347 -8.772699,0.0093 -16.612878,-12.431756 -16.612878,-12.431756 z"
       style="fill:#ffffff;fill-rule:evenodd;stroke:none;stroke-width:0.275831px;stroke-linecap:butt;stroke-linejoin:miter;stroke-opacity:1" />
    <path
       sodipodi:nodetypes="ccccccccccc"
       id="path841"
       d="m 75.979415,32.019756 3.007003,-1.248381 -2.475134,6.51246 -1.873713,-1.321572 0.538308,4.206905 4.59323,-1.376224 -1.546168,-0.627237 5.705937,-10.21518 -3.992453,0.150106 3.711807,-4.832462 -5.313992,1.336619 z"
       style="font-variation-settings:normal;opacity:1;vector-effect:none;fill:#ff004b;fill-opacity:1;fill-rule:evenodd;stroke:none;stroke-width:2.11667;stroke-linecap:butt;stroke-linejoin:miter;stroke-miterlimit:4;stroke-dasharray:none;stroke-dashoffset:0;stroke-opacity:1;stop-color:#000000;stop-opacity:1" />
    <path
       style="font-variation-settings:normal;opacity:1;vector-effect:none;fill:#ff004b;fill-opacity:1;fill-rule:evenodd;stroke:none;stroke-width:1.53391;stroke-linecap:butt;stroke-linejoin:miter;stroke-miterlimit:4;stroke-dasharray:none;stroke-dashoffset:0;stroke-opacity:1;stop-color:#000000;stop-opacity:1"
       d="m 127.2639,33.526769 2.31365,-0.418977 -1.92821,4.233749 -1.41837,-0.650743 0.62652,3.615959 3.55863,-1.580043 -1.3593,-0.687514 3.59927,-7.206522 -2.43912,0.435111 2.14427,-3.876098 -3.12253,-0.633335 z"
       id="path841-4"
       sodipodi:nodetypes="cccccccccccc" />
    <path
       sodipodi:nodetypes="cscsc"
       id="path835-9-7"
       d="m 162.80902,115.80624 c 0,0 5.16675,-15.45634 15.60135,-15.42316 10.4346,0.0332 17.24616,2.53957 17.24616,2.53957 0,0 -6.78186,15.17451 -16.87386,15.1852 -8.7727,0.009 -15.97365,-2.30161 -15.97365,-2.30161 z"
       style="font-variation-settings:normal;opacity:1;vector-effect:none;fill:#ff004b;fill-opacity:1;fill-rule:evenodd;stroke:none;stroke-width:2.11667;stroke-linecap:butt;stroke-linejoin:miter;stroke-miterlimit:4;stroke-dasharray:none;stroke-dashoffset:0;stroke-opacity:1;stop-color:#000000;stop-opacity:1" />
    <circle
       style="font-variation-settings:normal;opacity:1;vector-effect:none;fill:#ffffff;fill-opacity:1;stroke:none;stroke-width:2.01151;stroke-linecap:butt;stroke-linejoin:miter;stroke-miterlimit:4;stroke-dasharray:none;stroke-dashoffset:0;stroke-opacity:1;stop-color:#000000;stop-opacity:1"
       id="path910-5"
       cx="178.67409"
       cy="109.05611"
       r="7.6025615" />
    <path
       sodipodi:nodetypes="cccccccccccc"
       id="path841-4-9"
       d="m 176.7472,109.61079 1.80098,-0.80013 -0.73039,3.83017 -1.28411,-0.24856 1.22747,2.82032 2.5845,-1.99259 -1.24331,-0.29023 1.5015,-6.58249 -1.89994,0.83815 0.97727,-3.58179 -2.66842,0.10366 z"
       style="font-variation-settings:normal;opacity:1;vector-effect:none;fill:#ff004b;fill-opacity:1;fill-rule:evenodd;stroke:none;stroke-width:1.28564;stroke-linecap:butt;stroke-linejoin:miter;stroke-miterlimit:4;stroke-dasharray:none;stroke-dashoffset:0;stroke-opacity:1;stop-color:#000000;stop-opacity:1" />
    <circle
       r="12.276351"
       cy="111.34634"
       cx="108.66059"
       id="path940"
       style="font-variation-settings:normal;opacity:1;vector-effect:none;fill:#ff004b;fill-opacity:1;stroke:none;stroke-width:2.11667;stroke-linecap:butt;stroke-linejoin:miter;stroke-miterlimit:4;stroke-dasharray:none;stroke-dashoffset:0;stroke-opacity:1;stop-color:#000000;stop-opacity:1" />
    <path
       sodipodi:nodetypes="cscsc"
       id="path942"
       d="m 108.69311,101.38605 c 0,0 -2.46658,6.24645 -2.46695,10.36749 -3.5e-4,4.05205 2.35864,9.26249 2.35864,9.26249 0,0 2.5467,-4.25992 2.42386,-9.32273 -0.12969,-5.34468 -2.31555,-10.30725 -2.31555,-10.30725 z"
       style="fill:#ffffff;fill-rule:evenodd;stroke:none;stroke-width:0.264583px;stroke-linecap:butt;stroke-linejoin:miter;stroke-opacity:1" />
    <circle
       style="font-variation-settings:normal;opacity:1;vector-effect:none;fill:#ff004b;fill-opacity:1;stroke:none;stroke-width:2.11667;stroke-linecap:butt;stroke-linejoin:miter;stroke-miterlimit:4;stroke-dasharray:none;stroke-dashoffset:0;stroke-opacity:1;stop-color:#000000;stop-opacity:1"
       id="path940-3"
       cx="149.19208"
       cy="140.19548"
       r="12.276351" />
    <path
       style="font-variation-settings:normal;opacity:1;vector-effect:none;fill:#ffffff;fill-opacity:1;fill-rule:evenodd;stroke:none;stroke-width:1.82499;stroke-linecap:butt;stroke-linejoin:miter;stroke-miterlimit:4;stroke-dasharray:none;stroke-dashoffset:0;stroke-opacity:1;stop-color:#000000;stop-opacity:1"
       d="m 146.82529,142.59089 2.66548,-1.08938 -1.16479,8.71619 4.20723,-12.07006 -2.81194,1.14114 1.44638,-4.87659 -3.94931,0.14114 z"
       id="path841-4-9-6"
       sodipodi:nodetypes="cccccccc" />
    <path
       sodipodi:nodetypes="cccccccc"
       id="path841-4-9-6-4"
       d="m 132.23731,175.49004 2.66548,-1.08938 -1.16479,8.71619 4.20723,-12.07006 -2.81194,1.14114 1.44638,-4.87659 -3.94931,0.14114 z"
       style="font-variation-settings:normal;opacity:1;vector-effect:none;fill:#ffffff;fill-opacity:1;fill-rule:evenodd;stroke:none;stroke-width:1.82499;stroke-linecap:butt;stroke-linejoin:miter;stroke-miterlimit:4;stroke-dasharray:none;stroke-dashoffset:0;stroke-opacity:1;stop-color:#000000;stop-opacity:1" />
    <path
       inkscape:transform-center-y="-180.60214"
       inkscape:transform-center-x="-9.6581257"
       sodipodi:nodetypes="cscsc"
       id="path835-9-8"
       d="m 34.661885,222.86873 c 0,0 10.11894,-12.97394 25.730412,-12.92429 15.611472,0.0497 25.49965,13.53848 25.49965,13.53848 0,0 -10.13293,11.46011 -25.231829,11.47611 -13.12506,0.0135 -25.998233,-12.0903 -25.998233,-12.0903 z"
       style="font-variation-settings:normal;opacity:1;vector-effect:none;fill:#ff004b;fill-opacity:1;fill-rule:evenodd;stroke:none;stroke-width:3.1668;stroke-linecap:butt;stroke-linejoin:miter;stroke-miterlimit:4;stroke-dasharray:none;stroke-dashoffset:0;stroke-opacity:1;stop-color:#000000;stop-opacity:1" />
    <circle
       r="10.409612"
       cy="222.46408"
       cx="60.437622"
       id="path940-3-0"
       style="font-variation-settings:normal;opacity:1;vector-effect:none;fill:#ffffff;fill-opacity:1;stroke:none;stroke-width:1.79481;stroke-linecap:butt;stroke-linejoin:miter;stroke-miterlimit:4;stroke-dasharray:none;stroke-dashoffset:0;stroke-opacity:1;stop-color:#000000;stop-opacity:1" />
    <path
       sodipodi:nodetypes="ccccccc"
       id="path841-4-9-6-8"
       d="m 55.107608,224.2611 4.659608,-1.8391 -1.260127,9.05599 5.55851,-12.79346 -4.464049,1.60445 2.087888,-7.41036 z"
       style="font-variation-settings:normal;opacity:1;vector-effect:none;fill:#ff004b;fill-opacity:1;fill-rule:evenodd;stroke:none;stroke-width:2.34931;stroke-linecap:butt;stroke-linejoin:miter;stroke-miterlimit:4;stroke-dasharray:none;stroke-dashoffset:0;stroke-opacity:1;stop-color:#000000;stop-opacity:1" />
  </g>
</svg>
