<svg xmlns="http://www.w3.org/2000/svg" xmlns:svg="http://www.w3.org/2000/svg" xmlns:xlink="http://www.w3.org/1999/xlink" id="svg8" width="210mm" height="297mm" version="1.1" viewBox="0 0 210 297"><defs id="defs2"><linearGradient id="linearGradient13418"><stop style="stop-color:#ff004b;stop-opacity:1" id="stop13414" offset="0"/><stop style="stop-color:#f0f;stop-opacity:1" id="stop13416" offset="1"/></linearGradient><linearGradient id="linearGradient13420" x1="33.469" x2="52.277" y1="171.686" y2="110.196" gradientUnits="userSpaceOnUse" xlink:href="#linearGradient13418"/></defs><metadata id="metadata5"/><g id="layer1"><rect style="font-variation-settings:normal;opacity:1;vector-effect:none;fill:none;fill-opacity:1;stroke:none;stroke-width:2.11667;stroke-linecap:butt;stroke-linejoin:miter;stroke-miterlimit:4;stroke-dasharray:none;stroke-dashoffset:0;stroke-opacity:1;stop-color:#000;stop-opacity:1" id="rect1039" width="64" height="64" x="27.863" y="190.737" ry="0"/><path id="path835-9" d="m 112.41181,34.364042 c 0,0 6.26953,-8.840905 16.70413,-8.807721 10.4346,0.03318 16.93335,11.365175 16.93335,11.365175 0,0 -6.46905,6.348905 -16.56105,6.359595 -8.7727,0.0093 -17.07643,-8.917049 -17.07643,-8.917049 z" style="font-variation-settings:normal;opacity:1;vector-effect:none;fill:#ff004b;fill-opacity:1;fill-rule:evenodd;stroke:none;stroke-width:2.11667;stroke-linecap:butt;stroke-linejoin:miter;stroke-miterlimit:4;stroke-dasharray:none;stroke-dashoffset:0;stroke-opacity:1;stop-color:#000;stop-opacity:1"/><circle style="font-variation-settings:normal;opacity:1;vector-effect:none;fill:#fff;fill-opacity:1;stroke:none;stroke-width:2.11667;stroke-linecap:butt;stroke-linejoin:miter;stroke-miterlimit:4;stroke-dasharray:none;stroke-dashoffset:0;stroke-opacity:1;stop-color:#000;stop-opacity:1" id="path910" cx="129.58" cy="33.644" r="8"/><rect style="fill:#ff004b;fill-opacity:1;stroke:none;stroke-width:2.11667;stroke-miterlimit:4;stroke-dasharray:none;stroke-opacity:1" id="rect837" width="38.153" height="41.658" x="59.908" y="12.687" ry="3.775"/><path style="fill:#fff;fill-rule:evenodd;stroke:none;stroke-width:.275831px;stroke-linecap:butt;stroke-linejoin:miter;stroke-opacity:1" id="path835" d="m 62.278374,32.804617 c 0,0 6.393998,-13.922134 16.828601,-13.88895 10.434603,0.03318 17.088276,12.907236 17.088276,12.907236 0,0 -7.211991,13.402781 -17.303999,13.41347 -8.772699,0.0093 -16.612878,-12.431756 -16.612878,-12.431756 z"/><path style="font-variation-settings:normal;opacity:1;vector-effect:none;fill:#ff004b;fill-opacity:1;fill-rule:evenodd;stroke:none;stroke-width:2.11667;stroke-linecap:butt;stroke-linejoin:miter;stroke-miterlimit:4;stroke-dasharray:none;stroke-dashoffset:0;stroke-opacity:1;stop-color:#000;stop-opacity:1" id="path841" d="m 75.979415,32.019756 3.007003,-1.248381 -2.475134,6.51246 -1.873713,-1.321572 0.538308,4.206905 4.59323,-1.376224 -1.546168,-0.627237 5.705937,-10.21518 -3.992453,0.150106 3.711807,-4.832462 -5.313992,1.336619 z"/><path id="path841-4" d="m 127.2639,33.526769 2.31365,-0.418977 -1.92821,4.233749 -1.41837,-0.650743 0.62652,3.615959 3.55863,-1.580043 -1.3593,-0.687514 3.59927,-7.206522 -2.43912,0.435111 2.14427,-3.876098 -3.12253,-0.633335 z" style="font-variation-settings:normal;opacity:1;vector-effect:none;fill:#ff004b;fill-opacity:1;fill-rule:evenodd;stroke:none;stroke-width:1.53391;stroke-linecap:butt;stroke-linejoin:miter;stroke-miterlimit:4;stroke-dasharray:none;stroke-dashoffset:0;stroke-opacity:1;stop-color:#000;stop-opacity:1"/><path style="font-variation-settings:normal;opacity:1;vector-effect:none;fill:#ff004b;fill-opacity:1;fill-rule:evenodd;stroke:none;stroke-width:2.11667;stroke-linecap:butt;stroke-linejoin:miter;stroke-miterlimit:4;stroke-dasharray:none;stroke-dashoffset:0;stroke-opacity:1;stop-color:#000;stop-opacity:1" id="path835-9-7" d="m 162.80902,115.80624 c 0,0 5.16675,-15.45634 15.60135,-15.42316 10.4346,0.0332 17.24616,2.53957 17.24616,2.53957 0,0 -6.78186,15.17451 -16.87386,15.1852 -8.7727,0.009 -15.97365,-2.30161 -15.97365,-2.30161 z"/><circle id="path910-5" cx="178.674" cy="109.056" r="7.603" style="font-variation-settings:normal;opacity:1;vector-effect:none;fill:#fff;fill-opacity:1;stroke:none;stroke-width:2.01151;stroke-linecap:butt;stroke-linejoin:miter;stroke-miterlimit:4;stroke-dasharray:none;stroke-dashoffset:0;stroke-opacity:1;stop-color:#000;stop-opacity:1"/><path style="font-variation-settings:normal;opacity:1;vector-effect:none;fill:#ff004b;fill-opacity:1;fill-rule:evenodd;stroke:none;stroke-width:1.28564;stroke-linecap:butt;stroke-linejoin:miter;stroke-miterlimit:4;stroke-dasharray:none;stroke-dashoffset:0;stroke-opacity:1;stop-color:#000;stop-opacity:1" id="path841-4-9" d="m 176.7472,109.61079 1.80098,-0.80013 -0.73039,3.83017 -1.28411,-0.24856 1.22747,2.82032 2.5845,-1.99259 -1.24331,-0.29023 1.5015,-6.58249 -1.89994,0.83815 0.97727,-3.58179 -2.66842,0.10366 z"/><circle style="font-variation-settings:normal;opacity:1;vector-effect:none;fill:#ff004b;fill-opacity:1;stroke:none;stroke-width:2.11667;stroke-linecap:butt;stroke-linejoin:miter;stroke-miterlimit:4;stroke-dasharray:none;stroke-dashoffset:0;stroke-opacity:1;stop-color:#000;stop-opacity:1" id="path940" cx="108.661" cy="111.346" r="12.276"/><path style="fill:#fff;fill-rule:evenodd;stroke:none;stroke-width:.264583px;stroke-linecap:butt;stroke-linejoin:miter;stroke-opacity:1" id="path942" d="m 108.69311,101.38605 c 0,0 -2.46658,6.24645 -2.46695,10.36749 -3.5e-4,4.05205 2.35864,9.26249 2.35864,9.26249 0,0 2.5467,-4.25992 2.42386,-9.32273 -0.12969,-5.34468 -2.31555,-10.30725 -2.31555,-10.30725 z"/><circle id="path940-3" cx="149.192" cy="140.195" r="12.276" style="font-variation-settings:normal;opacity:1;vector-effect:none;fill:#ff004b;fill-opacity:1;stroke:none;stroke-width:2.11667;stroke-linecap:butt;stroke-linejoin:miter;stroke-miterlimit:4;stroke-dasharray:none;stroke-dashoffset:0;stroke-opacity:1;stop-color:#000;stop-opacity:1"/><path id="path841-4-9-6" d="m 146.82529,142.59089 2.66548,-1.08938 -1.16479,8.71619 4.20723,-12.07006 -2.81194,1.14114 1.44638,-4.87659 -3.94931,0.14114 z" style="font-variation-settings:normal;opacity:1;vector-effect:none;fill:#fff;fill-opacity:1;fill-rule:evenodd;stroke:none;stroke-width:1.82499;stroke-linecap:butt;stroke-linejoin:miter;stroke-miterlimit:4;stroke-dasharray:none;stroke-dashoffset:0;stroke-opacity:1;stop-color:#000;stop-opacity:1"/><path style="font-variation-settings:normal;opacity:1;vector-effect:none;fill:#fff;fill-opacity:1;fill-rule:evenodd;stroke:none;stroke-width:1.82499;stroke-linecap:butt;stroke-linejoin:miter;stroke-miterlimit:4;stroke-dasharray:none;stroke-dashoffset:0;stroke-opacity:1;stop-color:#000;stop-opacity:1" id="path841-4-9-6-4" d="m 132.23731,175.49004 2.66548,-1.08938 -1.16479,8.71619 4.20723,-12.07006 -2.81194,1.14114 1.44638,-4.87659 -3.94931,0.14114 z"/><path style="font-variation-settings:normal;opacity:1;vector-effect:none;fill:#ff004b;fill-opacity:1;fill-rule:evenodd;stroke:none;stroke-width:3.61465;stroke-linecap:butt;stroke-linejoin:miter;stroke-miterlimit:4;stroke-dasharray:none;stroke-dashoffset:0;stroke-opacity:1;stop-color:#000;stop-opacity:1" id="path835-9-8" d="m 31.039367,222.92771 c 0,0 11.549977,-14.80873 29.369247,-14.75206 17.819271,0.0567 29.105851,15.45311 29.105851,15.45311 0,0 -11.565945,13.08082 -28.800154,13.09908 -14.981227,0.0154 -29.674944,-13.80013 -29.674944,-13.80013 z"/><circle style="font-variation-settings:normal;opacity:1;vector-effect:none;fill:#fff;fill-opacity:1;stroke:none;stroke-width:2.04864;stroke-linecap:butt;stroke-linejoin:miter;stroke-miterlimit:4;stroke-dasharray:none;stroke-dashoffset:0;stroke-opacity:1;stop-color:#000;stop-opacity:1" id="path940-3-0" cx="60.46" cy="222.466" r="11.882"/><path style="font-variation-settings:normal;opacity:1;vector-effect:none;fill:#ff004b;fill-opacity:1;fill-rule:evenodd;stroke:none;stroke-width:2.68155;stroke-linecap:butt;stroke-linejoin:miter;stroke-miterlimit:4;stroke-dasharray:none;stroke-dashoffset:0;stroke-opacity:1;stop-color:#000;stop-opacity:1" id="path841-4-9-6-8" d="m 54.376556,224.51699 5.318577,-2.09919 -1.438336,10.33671 6.344603,-14.60273 -5.095361,1.83135 2.38316,-8.45835 z"/><rect id="rect1039-9" width="64" height="64" x="130.096" y="207.909" ry="0" style="font-variation-settings:normal;opacity:1;vector-effect:none;fill:none;fill-opacity:1;stroke:none;stroke-width:2.11667;stroke-linecap:butt;stroke-linejoin:miter;stroke-miterlimit:4;stroke-dasharray:none;stroke-dashoffset:0;stroke-opacity:1;stop-color:#000;stop-opacity:1"/><path id="path835-9-8-5" d="m 134.77167,240.33002 c 9.57651,-2.11528 13.17215,-16.04482 27.73432,-15.88695 14.56217,0.15787 18.84356,14.17045 27.7721,15.78072 -8.66039,1.12175 -13.37654,15.04056 -27.9933,14.86707 -14.61676,-0.17349 -18.55576,-13.07082 -27.51312,-14.76084 z" style="font-variation-settings:normal;opacity:1;vector-effect:none;fill:#ff004b;fill-opacity:1;fill-rule:evenodd;stroke:none;stroke-width:3.61465;stroke-linecap:butt;stroke-linejoin:miter;stroke-miterlimit:4;stroke-dasharray:none;stroke-dashoffset:0;stroke-opacity:1;stop-color:#000;stop-opacity:1"/><circle id="path940-3-0-0" cx="162.693" cy="239.637" r="11.882" style="font-variation-settings:normal;opacity:1;vector-effect:none;fill:#fff;fill-opacity:1;stroke:none;stroke-width:2.04864;stroke-linecap:butt;stroke-linejoin:miter;stroke-miterlimit:4;stroke-dasharray:none;stroke-dashoffset:0;stroke-opacity:1;stop-color:#000;stop-opacity:1"/><path id="path841-4-9-6-8-4" d="m 157.792,241.87834 5.18901,-1.6398 -1.30876,9.87732 6.3446,-14.60273 -5.09536,1.83135 2.38316,-8.45835 z" style="font-variation-settings:normal;opacity:1;vector-effect:none;fill:#ff004b;fill-opacity:1;fill-rule:evenodd;stroke:none;stroke-width:3.61465;stroke-linecap:butt;stroke-linejoin:miter;stroke-miterlimit:4;stroke-dasharray:none;stroke-dashoffset:0;stroke-opacity:1;stop-color:#000;stop-opacity:1"/><path id="path952" d="m 162.55126,212.97424 v 6.95338" style="fill:red;fill-rule:evenodd;stroke:red;stroke-width:2;stroke-linecap:round;stroke-linejoin:bevel;stroke-miterlimit:4;stroke-dasharray:none;stroke-opacity:1"/><path style="fill:red;fill-rule:evenodd;stroke:red;stroke-width:2;stroke-linecap:round;stroke-linejoin:bevel;stroke-miterlimit:4;stroke-dasharray:none;stroke-opacity:1" id="path952-9" d="m 161.86245,259.36432 v 6.95338"/><path style="fill:red;fill-rule:evenodd;stroke:red;stroke-width:2;stroke-linecap:round;stroke-linejoin:bevel;stroke-miterlimit:4;stroke-dasharray:none;stroke-opacity:1" id="path952-3" d="m 144.94252,219.31269 4.56854,5.24194"/><path id="path952-9-9" d="m 174.90265,254.73731 4.56854,5.24194" style="fill:red;fill-rule:evenodd;stroke:red;stroke-width:2;stroke-linecap:round;stroke-linejoin:bevel;stroke-miterlimit:4;stroke-dasharray:none;stroke-opacity:1"/><path id="path952-3-0" d="m 179.47119,219.31269 -4.56854,5.24194" style="fill:red;fill-rule:evenodd;stroke:red;stroke-width:2;stroke-linecap:round;stroke-linejoin:bevel;stroke-miterlimit:4;stroke-dasharray:none;stroke-opacity:1"/><path style="fill:red;fill-rule:evenodd;stroke:red;stroke-width:2;stroke-linecap:round;stroke-linejoin:bevel;stroke-miterlimit:4;stroke-dasharray:none;stroke-opacity:1" id="path952-9-9-8" d="m 149.51106,254.73731 -4.56854,5.24194"/><path id="path835-9-8-5-7" style="font-variation-settings:normal;fill:url(#linearGradient13420);fill-opacity:1;fill-rule:evenodd;stroke:none;stroke-width:3.61465;stroke-linecap:butt;stroke-linejoin:miter;stroke-miterlimit:4;stroke-dasharray:none;stroke-dashoffset:0;stroke-opacity:1;stop-color:#000" d="M 39.312329 127.49609 A 1 1 0 0 0 38.31239 128.49603 L 38.31239 135.4491 A 1 1 0 0 0 39.312329 136.44904 A 1 1 0 0 0 40.312268 135.4491 L 40.312268 128.49603 A 1 1 0 0 0 39.312329 127.49609 z M 21.700484 133.83576 A 1 1 0 0 0 21.046777 134.08226 A 1 1 0 0 0 20.949109 135.49199 L 25.517822 140.73456 A 1 1 0 0 0 26.929622 140.83016 A 1 1 0 0 0 27.025224 139.41991 L 22.457027 134.17786 A 1 1 0 0 0 21.700484 133.83576 z M 56.235327 133.83576 A 1 1 0 0 0 55.478267 134.17786 L 50.910071 139.41991 A 1 1 0 0 0 51.005672 140.83016 A 1 1 0 0 0 52.417989 140.73456 L 56.986186 135.49199 A 1 1 0 0 0 56.888517 134.08226 A 1 1 0 0 0 56.235327 133.83576 z M 39.266854 139.96562 C 24.704796 139.80775 21.10907 153.73722 11.532629 155.8525 C 20.48992 157.54252 24.429031 170.43987 39.045679 170.61336 C 53.662319 170.78685 58.378484 156.86824 67.038802 155.74657 C 58.110334 154.1363 53.828904 140.12349 39.266854 139.96562 z M 39.453923 144.93276 A 10.226954 10.226954 0 0 1 49.681205 155.15952 A 10.226954 10.226954 0 0 1 39.453923 165.38629 A 10.226954 10.226954 0 0 1 29.227157 155.15952 A 10.226954 10.226954 0 0 1 39.453923 144.93276 z M 39.563477 151.75766 A 3.2310669 3.2310669 0 0 0 36.332149 154.98899 A 3.2310669 3.2310669 0 0 0 39.563477 158.2198 A 3.2310669 3.2310669 0 0 0 42.794287 154.98899 A 3.2310669 3.2310669 0 0 0 39.563477 151.75766 z M 26.274882 169.25944 A 1 1 0 0 0 25.517822 169.6036 L 20.949109 174.84566 A 1 1 0 0 0 21.046777 176.25591 A 1 1 0 0 0 22.457027 176.15824 L 27.025224 170.91618 A 1 1 0 0 0 26.929622 169.50593 A 1 1 0 0 0 26.274882 169.25944 z M 51.660929 169.25944 A 1 1 0 0 0 51.005672 169.50593 A 1 1 0 0 0 50.910071 170.91618 L 55.478267 176.15824 A 1 1 0 0 0 56.888517 176.25591 A 1 1 0 0 0 56.986186 174.84566 L 52.417989 169.6036 A 1 1 0 0 0 51.660929 169.25944 z M 38.622965 173.88654 A 1 1 0 0 0 37.623027 174.88648 L 37.623027 181.84006 A 1 1 0 0 0 38.622965 182.84 A 1 1 0 0 0 39.622904 181.84006 L 39.622904 174.88648 A 1 1 0 0 0 38.622965 173.88654 z"/><path id="path841-4-9-6-8-4-9" d="m 88.05239,160.32369 3.960467,-1.25156 -0.9989,7.53878 4.842461,-11.14541 -3.888989,1.39776 1.818926,-6.45576 z" style="font-variation-settings:normal;fill:#ff004b;fill-opacity:1;fill-rule:evenodd;stroke:none;stroke-width:2.75885;stroke-linecap:butt;stroke-linejoin:miter;stroke-miterlimit:4;stroke-dasharray:none;stroke-dashoffset:0;stroke-opacity:1;stop-color:#000"/><g id="path952-3-6"><path style="color:#000;fill:red;fill-rule:evenodd;stroke-width:2;stroke-linecap:round;stroke-linejoin:bevel" id="path13307" d="m 21.703295,134.83523 4.56854,5.24194"/></g><path id="path835-9-8-5-6" d="m 68.751431,267.60306 c 9.57651,-2.11528 13.17215,-16.04482 27.73432,-15.88695 14.562169,0.15787 22.113469,9.21752 27.772099,15.78072 -8.66039,1.12175 -13.37654,15.04056 -27.993299,14.86707 -14.61676,-0.17349 -18.55576,-13.07082 -27.51312,-14.76084 z" style="font-variation-settings:normal;fill:#ff004b;fill-opacity:1;fill-rule:evenodd;stroke:none;stroke-width:3.61465;stroke-linecap:butt;stroke-linejoin:miter;stroke-miterlimit:4;stroke-dasharray:none;stroke-dashoffset:0;stroke-opacity:1;stop-color:#000"/><circle id="path940-3-0-0-7" cx="96.673" cy="266.91" r="11.882" style="font-variation-settings:normal;fill:#fff;fill-opacity:1;stroke:none;stroke-width:2.04864;stroke-linecap:butt;stroke-linejoin:miter;stroke-miterlimit:4;stroke-dasharray:none;stroke-dashoffset:0;stroke-opacity:1;stop-color:#000"/><path id="path952-35" d="m 96.531021,240.24728 v 6.95338" style="fill:red;fill-rule:evenodd;stroke:red;stroke-width:2;stroke-linecap:round;stroke-linejoin:bevel;stroke-miterlimit:4;stroke-dasharray:none;stroke-opacity:1"/><path style="fill:red;fill-rule:evenodd;stroke:red;stroke-width:2;stroke-linecap:round;stroke-linejoin:bevel;stroke-miterlimit:4;stroke-dasharray:none;stroke-opacity:1" id="path952-9-6" d="m 95.842211,286.63736 v 6.95338"/><path style="fill:red;fill-rule:evenodd;stroke:red;stroke-width:2;stroke-linecap:round;stroke-linejoin:bevel;stroke-miterlimit:4;stroke-dasharray:none;stroke-opacity:1" id="path952-3-2" d="m 78.922281,246.58573 4.56854,5.24194"/><path id="path952-9-9-9" d="m 108.88241,282.01035 4.56854,5.24194" style="fill:red;fill-rule:evenodd;stroke:red;stroke-width:2;stroke-linecap:round;stroke-linejoin:bevel;stroke-miterlimit:4;stroke-dasharray:none;stroke-opacity:1"/><path id="path952-3-0-1" d="m 113.45095,246.58573 -4.56854,5.24194" style="fill:red;fill-rule:evenodd;stroke:red;stroke-width:2;stroke-linecap:round;stroke-linejoin:bevel;stroke-miterlimit:4;stroke-dasharray:none;stroke-opacity:1"/><path style="fill:red;fill-rule:evenodd;stroke:red;stroke-width:2;stroke-linecap:round;stroke-linejoin:bevel;stroke-miterlimit:4;stroke-dasharray:none;stroke-opacity:1" id="path952-9-9-8-2" d="m 83.490821,282.01035 -4.56854,5.24194"/><path id="path841-4-9-6-3" d="m 94.172655,268.46126 2.66548,-1.08938 -1.16479,8.71619 4.20723,-12.07006 -2.81194,1.14114 1.44638,-4.87659 -3.94931,0.14114 z" style="font-variation-settings:normal;vector-effect:none;fill:#ff004b;fill-opacity:1;fill-rule:evenodd;stroke:none;stroke-width:1.82499;stroke-linecap:butt;stroke-linejoin:miter;stroke-miterlimit:4;stroke-dasharray:none;stroke-dashoffset:0;stroke-opacity:1;stop-color:#000"/><path style="fill:#ff004b;fill-opacity:1;stroke:none;stroke-width:.264583px;stroke-linecap:butt;stroke-linejoin:miter;stroke-opacity:1" id="path11641" d="m 70.368345,202.02579 c 0,0 6.516396,-3.83691 13.22088,-3.70704 6.704489,0.12987 14.220339,4.25955 14.220339,4.25955 l -14.404182,-9.30735 z"/></g></svg>