<svg fill="none" height="24" viewBox="0 0 24 24" width="24" xmlns="http://www.w3.org/2000/svg"><g fill="#292929"><path d="m19 5h-14v13c0 .5523.44772 1 1 1h12c.5523 0 1-.4477 1-1zm2 13c0 1.6569-1.3431 3-3 3h-12c-1.65685 0-3-1.3431-3-3v-14c0-.55228.44772-1 1-1h16c.5523 0 1 .44772 1 1z"/><path d="m8.29295 11.707c-.39052-.3905-.39052-1.0236 0-1.4141.39053-.3905 1.02354-.3905 1.41407 0l2.29298 2.293 2.293-2.293c.3905-.3905 1.0235-.3905 1.414 0s.3905 1.0236 0 1.4141l-3 3c-.3905.3905-1.0235.3905-1.414 0z"/></g></svg>