<svg fill="none" height="24" viewBox="0 0 24 24" width="24" xmlns="http://www.w3.org/2000/svg"><g fill="#292929"><path d="m19 5h-14v13c0 .5523.44772 1 1 1h12c.5523 0 1-.4477 1-1zm2 13c0 1.6569-1.3431 3-3 3h-12c-1.65685 0-3-1.3431-3-3v-14c0-.55228.44772-1 1-1h16c.5523 0 1 .44772 1 1z"/><path d="m12.293 8.29302c.3905-.39053 1.0235-.39053 1.414 0 .3905.39052.3905 1.02353 0 1.41406l-2.293 2.29292 2.293 2.293c.3905.3905.3905 1.0236 0 1.4141s-1.0235.3905-1.414 0l-3.00005-3c-.39052-.3905-.39052-1.0236 0-1.4141z"/></g></svg>