<svg fill="none" height="24" viewBox="0 0 24 24" width="24" xmlns="http://www.w3.org/2000/svg"><path d="m16.293 6.29302c.3905-.39053 1.0235-.39053 1.414 0 .3905.39052.3905 1.02353 0 1.41406l-4.293 4.29292 4.293 4.293c.3905.3905.3905 1.0236 0 1.4141s-1.0235.3905-1.414 0l-4.293-4.293-4.29298 4.293c-.39053.3905-1.02354.3905-1.41407 0-.39052-.3905-.39052-1.0236 0-1.4141l4.29295-4.293-4.29295-4.29292c-.39052-.39053-.39052-1.02354 0-1.41406.39053-.39053 1.02354-.39053 1.41407 0l4.29298 4.29298z" fill="#292929"/></svg>