<svg fill="none" height="24" viewBox="0 0 24 24" width="24" xmlns="http://www.w3.org/2000/svg"><path d="m16.1163 6.11636c.4881-.48815 1.2794-.48816 1.7676 0 .488.48816.4881 1.27945 0 1.76758l-4.1162 4.11616 4.1162 4.1163c.4878.4881.488 1.2795 0 1.7675-.4881.4881-1.2794.4879-1.7676 0l-4.1162-4.1162-4.11624 4.1162c-.48818.4879-1.2805.4881-1.76855 0-.4876-.488-.48754-1.2795 0-1.7675l4.11619-4.1172-4.11521-4.11526c-.48816-.48816-.48816-1.27942 0-1.76758.48815-.48815 1.27942-.48815 1.76757 0l4.11524 4.11524z" fill="#292929"/></svg>