<svg fill="none" height="24" viewBox="0 0 24 24" width="24" xmlns="http://www.w3.org/2000/svg"><g fill="#292929"><path d="m20 12c0-4.41828-3.5817-8-8-8-4.41828 0-8 3.58172-8 8 0 4.4183 3.58172 8 8 8 4.4183 0 8-3.5817 8-8zm2 0c0 5.5228-4.4772 10-10 10-5.52285 0-10-4.4772-10-10 0-5.52285 4.47715-10 10-10 5.5228 0 10 4.47715 10 10z"/><path d="m12.0098 14.5c.8284 0 1.5.6716 1.5 1.5v.0098c0 .8284-.6716 1.5-1.5 1.5h-.0098c-.8284 0-1.5-.6716-1.5-1.5v-.0098c0-.8284.6716-1.5 1.5-1.5z"/><path d="m13 8v4c0 .5523-.4477 1-1 1s-1-.4477-1-1v-4c0-.55228.4477-1 1-1s1 .44772 1 1z"/></g></svg>