<svg fill="none" height="24" viewBox="0 0 24 24" width="24" xmlns="http://www.w3.org/2000/svg"><g fill="#292929"><path d="m20 11.9999c0-4.4183-3.5817-8.00002-8-8.00002-4.41828 0-8 3.58172-8 8.00002s3.58172 8 8 8c4.4183 0 8-3.5817 8-8zm2 0c0 5.5228-4.4772 10-10 10-5.52285 0-10-4.4772-10-10 0-5.52287 4.47715-10.00002 10-10.00002 5.5228 0 10 4.47715 10 10.00002z"/><path d="m13.293 9.29301c.3905-.39051 1.0236-.39052 1.4141 0 .3904.39053.3905 1.02359 0 1.41409l-1.293 1.2929 1.293 1.293c.3902.3906.3904 1.0236 0 1.4141-.3905.3904-1.0235.3902-1.4141 0l-1.293-1.293-1.2929 1.293c-.3905.3902-1.02364.3903-1.41408 0-.39044-.3905-.39026-1.0235 0-1.4141l1.29298-1.293-1.29298-1.2929c-.39053-.3906-.39053-1.02357 0-1.41409.39052-.39051 1.02358-.39052 1.41408 0l1.2929 1.29299z"/></g></svg>