<svg fill="none" height="24" viewBox="0 0 24 24" width="24" xmlns="http://www.w3.org/2000/svg"><path d="m11.9997 4.75793c2.3469-1.716 5.6584-1.51347 7.7783.60644 2.343 2.34312 2.343 6.14123 0 8.48433l-5.6563 5.6573c-1.1715 1.1715-3.0716 1.1715-4.24312 0l-5.65625-5.6573c-2.34315-2.3431-2.34315-6.14118 0-8.48433 2.11976-2.11977 5.43039-2.32205 7.77737-.60644zm6.3642 2.02051c-1.5621-1.5621-4.0951-1.5621-5.6572 0-.3906.39014-1.0237.39039-1.4141 0-1.56206-1.5621-4.09412-1.5621-5.65621 0-1.5621 1.56209-1.5621 4.09416 0 5.65626l5.65621 5.6572c.3905.3904 1.0236.3903 1.4141 0l5.6572-5.6572c1.562-1.5621 1.562-4.09419 0-5.65626z" fill="#292929"/></svg>