<svg fill="none" height="24" viewBox="0 0 24 24" width="24" xmlns="http://www.w3.org/2000/svg"><g fill="#292929"><path d="m20.0001 8h-8c-.2652 0-.5195-.10543-.707-.29297l-1.70704-1.70703h-5.58594v11c0 .5523.44772 1 1 1h13.99998c.5523 0 1-.4477 1-1zm2 9c0 1.6569-1.3431 3-3 3h-13.99998c-1.65685 0-3-1.3431-3-3v-12c0-.55228.44772-1 1-1h6.99998c.2652 0 .5195.10543.7071.29297l1.707 1.70703h8.5859c.5523 0 1 .44772 1 1z"/><path d="m9 10c.55228 0 1 .4477 1 1s-.44772 1-1 1h-2c-.55228 0-1-.4477-1-1s.44772-1 1-1z"/><path d="m9 14c.55228 0 1 .4477 1 1s-.44772 1-1 1h-2c-.55228 0-1-.4477-1-1s.44772-1 1-1z"/><path d="m17 10c.5523 0 1 .4477 1 1v4c0 .5523-.4477 1-1 1h-4c-.5523 0-1-.4477-1-1v-4c0-.5523.4477-1 1-1zm-3 4h2v-2h-2z"/></g></svg>