<svg fill="none" height="24" viewBox="0 0 24 24" width="24" xmlns="http://www.w3.org/2000/svg"><g fill="#292929"><path d="m10 4c.2652 0 .5195.10547.707.29297l1.7071 1.70703h8.5859c.5523 0 1 .44772 1 1v10c0 1.6569-1.3431 3-3 3h-14c-1.6568-.0001-3-1.3432-3-3v-12c0-.55224.44777-.99993 1-1zm-2.58594 14h9.17184l-4.5859-4.5859zm-3.41406-1c0 .4287.27033.7934.64941.9355l6.64359-6.6425c.3661-.3661.9451-.3887 1.3379-.0684l.0761.0684 6.6426 6.6425c.3797-.1418.6504-.5064.6504-.9355v-9h-8c-.2652-.00003-.5195-.10546-.707-.29297l-1.70706-1.70703h-5.58594z"/><path d="m7.50977 8c.82842 0 1.5.67157 1.5 1.5v.00977c0 .82843-.67158 1.50003-1.5 1.50003h-.00977c-.82843 0-1.5-.6716-1.5-1.50003v-.00977c0-.82843.67157-1.5 1.5-1.5z"/></g></svg>