<svg fill="none" height="24" viewBox="0 0 24 24" width="24" xmlns="http://www.w3.org/2000/svg"><g fill="#292929"><path d="m20 9h-8c-.2652 0-.5195-.10543-.707-.29297l-1.70706-1.70703h-5.58594v11c0 .5523.44772 1 1 1h14c.5523 0 1-.4477 1-1zm2 9c0 1.6569-1.3431 3-3 3h-14c-1.65685 0-3-1.3431-3-3v-12c0-.55228.44772-1 1-1h7c.2652 0 .5195.10543.707.29297l1.7071 1.70703h8.5859c.5523 0 1 .44772 1 1z"/><path d="m9.14504 11.6284c.77807-.758 1.99356-.8303 2.85496-.2167.8614-.6136 2.0769-.5413 2.855.2167.86.838.86 2.1965 0 3.0344l-2.0764 2.023c-.43.4189-1.1272.4189-1.5572 0l-2.07636-2.023c-.86005-.8379-.86005-2.1964 0-3.0344z"/></g></svg>