<svg fill="none" height="24" viewBox="0 0 24 24" width="24" xmlns="http://www.w3.org/2000/svg"><path d="m10 4c.2652 0 .5195.10543.707.29297l1.7071 1.70703h8.5859c.5523 0 1 .44772 1 1v10c0 1.6569-1.3431 3-3 3h-14c-1.65685 0-3-1.3431-3-3v-12c0-.55228.44772-1 1-1zm-6 13c0 .5523.44772 1 1 1h14c.5523 0 1-.4477 1-1v-9h-1v6c0 .3418-.1746.6602-.4629.8438-.2882.1834-.6503.2069-.96.0624l-2.0771-.9697-2.0771.9697c-.3097.1445-.6718.121-.96-.0624-.2883-.1836-.4629-.502-.4629-.8438v-6c-.2652 0-.5195-.10543-.707-.29297l-1.70706-1.70703h-5.58594zm10-4.5713 1.0771-.5019c.2344-.1094.5009-.123.7432-.0411l.1026.0411 1.0771.5019v-4.4287h-3z" fill="#292929"/></svg>