<svg fill="none" height="24" viewBox="0 0 24 24" width="24" xmlns="http://www.w3.org/2000/svg"><g fill="#292929"><path d="m19 16v2h-14v-2zm1-1v-5c0-.55229-.4477-1-1-1h-14c-.55229 0-1 .44772-1 1v5c0 .5523.44772 1 1 1v2l-.1543-.0039c-1.53404-.0777-2.76407-1.3078-2.84179-2.8418l-.00391-.1543v-5c0-1.65685 1.34315-3 3-3h14c1.6569 0 3 1.34315 3 3v5c0 1.6051-1.2606 2.9158-2.8457 2.9961l-.1543.0039v-2c.5523 0 1-.4477 1-1z"/><path d="m9 12.5c0 .8284-.67157 1.5-1.5 1.5s-1.5-.6716-1.5-1.5.67157-1.5 1.5-1.5 1.5.6716 1.5 1.5z"/><path d="m14 12.5c0 .8284-.6716 1.5-1.5 1.5s-1.5-.6716-1.5-1.5.6716-1.5 1.5-1.5 1.5.6716 1.5 1.5z"/></g></svg>