<svg fill="none" height="24" viewBox="0 0 24 24" width="24" xmlns="http://www.w3.org/2000/svg"><g fill="#292929"><path d="m16 1c.5523 0 1 .44772 1 1v2c1.6569 0 3 1.34315 3 3h2c.5523 0 1 .44772 1 1s-.4477 1-1 1h-2v2h2c.5523 0 1 .4477 1 1s-.4477 1-1 1h-2v2h2c.5523 0 1 .4477 1 1s-.4477 1-1 1h-2c0 1.6569-1.3431 3-3 3v2c0 .5523-.4477 1-1 1s-1-.4477-1-1v-2h-2v2c0 .5523-.4477 1-1 1s-1-.4477-1-1v-2h-2v2c0 .5523-.44772 1-1 1s-1-.4477-1-1v-2c-1.65685 0-3-1.3431-3-3h-2c-.55228 0-1-.4477-1-1s.44772-1 1-1h2v-2h-2c-.55228 0-1-.4477-1-1s.44772-1 1-1h2v-2h-2c-.55228 0-1-.44772-1-1s.44772-1 1-1h2c0-1.65685 1.34315-3 3-3v-2c0-.55228.44772-1 1-1s1 .44772 1 1v2h2v-2c0-.55228.4477-1 1-1s1 .44772 1 1v2h2v-2c0-.55228.4477-1 1-1zm-9 5c-.55228 0-1 .44772-1 1v10c0 .5523.44772 1 1 1h10c.5523 0 1-.4477 1-1v-10c0-.55228-.4477-1-1-1z"/><path d="m14.2041 8.01074c1.0087.10226 1.7959.95361 1.7959 1.98926v4l-.0107.2041c-.1023 1.0087-.9536 1.7959-1.9893 1.7959h-4c-1.10457 0-2-.8954-2-2v-4c0-1.10457.89543-2 2-2h4zm-4.2041 5.98926h4v-4h-4z"/></g></svg>