<svg fill="none" height="24" viewBox="0 0 24 24" width="24" xmlns="http://www.w3.org/2000/svg"><g fill="#292929"><path d="m3 4c0-.55228.44772-1 1-1h6c.5523 0 1 .44772 1 1v6c0 .5523-.4477 1-1 1h-6c-.55228 0-1-.4477-1-1z"/><path d="m3 14c0-.5523.44772-1 1-1h6c.5523 0 1 .4477 1 1v6c0 .5523-.4477 1-1 1h-6c-.55228 0-1-.4477-1-1z"/><path d="m13 4c0-.55228.4477-1 1-1h6c.5523 0 1 .44772 1 1v6c0 .5523-.4477 1-1 1h-6c-.5523 0-1-.4477-1-1z"/><path d="m20.7068 16.2926c.3905.3905.3905 1.0237 0 1.4142l-2.9997 2.9997c-.3905.3905-1.0237.3905-1.4142 0l-2.9997-2.9997c-.3905-.3905-.3905-1.0237 0-1.4142l2.9997-2.9997c.3905-.3905 1.0237-.3905 1.4142 0zm-5.2923.7071 1.5855 1.5855 1.5855-1.5855-1.5855-1.5855z"/></g></svg>