<svg fill="none" height="24" viewBox="0 0 24 24" width="24" xmlns="http://www.w3.org/2000/svg"><g fill="#292929"><path d="m9 18c-.55228 0-1-.4477-1-1s.44772-1 1-1h6c.5523 0 1 .4477 1 1s-.4477 1-1 1z"/><path d="m9 14c-.55228 0-1-.4477-1-1s.44772-1 1-1h6c.5523 0 1 .4477 1 1s-.4477 1-1 1z"/><path d="m12.5 2c1.3807 0 2.5 1.11929 2.5 2.5v.5h4c.5523 0 1 .44772 1 1v13c0 1.6569-1.3431 3-3 3h-10c-1.65685 0-3-1.3431-3-3v-13c0-.55228.44772-1 1-1h4v-.5c0-1.38071 1.1193-2.5 2.5-2.5zm-6.5 17c0 .5523.44772 1 1 1h10c.5523 0 1-.4477 1-1v-12h-2v2c0 .55228-.4477 1-1 1h-6c-.51768 0-.94379-.39333-.99512-.89746l-.00488-.10254v-2h-2zm4-11h4v-1h-4zm1.5-4c-.2761 0-.5.22386-.5.5v.5h2v-.5c0-.27614-.2239-.5-.5-.5z"/></g></svg>