<svg fill="none" height="24" viewBox="0 0 24 24" width="24" xmlns="http://www.w3.org/2000/svg"><path d="m11.3691 2.22462c.3928-.32035.9718-.29776 1.3379.06836l2 2c.3904.39053.3905 1.02358 0 1.41406-.3905.39038-1.0235.39037-1.414 0l-.293-.29297v5.58593h5.5859l-.2929-.293c-.3905-.3904-.3904-1.02349 0-1.41402.3905-.39053 1.0235-.39053 1.414 0l2 2.00002.0684.0762c.3202.3927.2977.9718-.0684 1.3378l-2 2c-.3905.3904-1.0235.3904-1.414 0s-.3904-1.0235 0-1.414l.2929-.293h-5.5859v5.5859l.293-.2929c.3905-.3905 1.0235-.3905 1.414 0 .3904.3905.3905 1.0236 0 1.414l-2 2c-.1875.1875-.4418.293-.707.293s-.5195-.1055-.707-.293l-2.00003-2c-.39049-.3904-.39042-1.0235 0-1.414.39052-.3905 1.02353-.3905 1.41403 0l.293.2929v-5.5859h-5.58594l.29297.293c.39039.3905.39048 1.0236 0 1.414-.39049.3904-1.02357.3904-1.41406 0l-2-2c-.18748-.1874-.2929-.4419-.29297-.707 0-.2651.10551-.5195.29297-.707l2-2.00002c.39052-.39053 1.02354-.39053 1.41406 0 .39039.39053.39048 1.02362 0 1.41402l-.29297.293h5.58594v-5.58593l-.293.29297c-.3905.39038-1.02353.39037-1.41403 0-.39049-.39049-.39042-1.02353 0-1.41406l2.00003-2z" fill="#292929"/></svg>