<svg fill="none" height="24" viewBox="0 0 24 24" width="24" xmlns="http://www.w3.org/2000/svg"><g fill="#292929"><path d="m13 12c0-.5523-.4477-1-1-1s-1 .4477-1 1 .4477 1 1 1 1-.4477 1-1zm2 0c0 1.6569-1.3431 3-3 3s-3-1.3431-3-3 1.3431-3 3-3 3 1.3431 3 3z"/><path d="m18.9282 8.0001c-.1696-.29366-.3568-.57069-.5558-.8338l-.872.50342c-1.9999 1.15468-4.5004-.28848-4.5005-2.5978l-.0001-1.00803c-.6603-.08376-1.3322-.08464-2.0008-.00066l.0006 1.00888c-.0002 2.30907-2.49942 3.75196-4.49926 2.59766l-.87425-.50449c-.40693.53702-.74228 1.11935-.99984 1.73308l.87377.50364c1.99986 1.1548 1.99947 4.0418-.00048 5.1964l-.87195.5035c.12837.3038.27464.6045.44418.8982.16957.2937.35681.5707.55582.8338l.87195-.5034c2-1.1547 4.50046.2884 4.50046 2.5978l-.0003 1.0072c.6601.0837 1.3316.085 1.9999.0011l.0007-1.0085c.0002-2.3092 2.4994-3.7521 4.4993-2.5977l.8729.5042c.4069-.5369.7414-1.1191.999-1.7326l-.8716-.5038c-2-1.1547-1.9995-4.0417.0005-5.19643l.872-.50341c-.1284-.30392-.2747-.60457-.4442-.89826zm1.732-1c.3811.66006.6785 1.34672.8956 2.04721.1382.44599-.0502.92862-.4544 1.16219l-1.601.9243c-.6667.3849-.6668 1.3473-.0001 1.7322l1.599.9238c.4039.2333.5929.7144.4555 1.1601-.4364 1.4146-1.1867 2.7364-2.2207 3.8509-.3173.3419-.8283.419-1.2323.186l-1.6017-.9246c-.6666-.3849-1.5003.0964-1.5003.8662l-.0001 1.8494c-.0002.4664-.3225.8704-.7772.9742-1.4822.3382-3.0021.327-4.44531-.0023-.45469-.1039-.77682-.5081-.7769-.9745l-.00059-1.8467c0-.7698-.8335-1.2509-1.50016-.866l-1.60097.9244c-.40441.2332-.91654.155-1.23368-.1876-.4981-.5383-.94408-1.1391-1.32517-1.7992-.38118-.6602-.67892-1.3474-.89602-2.0481-.138-.4459.05073-.9278.45487-1.1613l1.60097-.9243c.66666-.3849.66683-1.3473.00016-1.7322l-1.59902-.9238c-.40393-.23327-.59285-.7144-.45552-1.16012.43644-1.41455 1.18667-2.73637 2.22071-3.85088l.12691-.11613c.316-.24071.75181-.27386 1.10535-.06984l1.60169.92459c.66664.38483 1.50028-.09647 1.50032-.86621l.00012-1.8494.01377-.17146c.06797-.3914.36543-.71187.76342-.80273 1.48215-.33823 3.00165-.32784 4.44485.00141.4549.10379.7774.50881.7774.97538l.0006 1.84673c0 .7698.8335 1.25083 1.5001.86593l1.601-.92431.1553-.07277c.3734-.13711.8002-.04034 1.0779.25951.4982.53834.9444 1.13978 1.3256 1.8z"/></g></svg>