<svg fill="none" height="24" viewBox="0 0 24 24" width="24" xmlns="http://www.w3.org/2000/svg"><g fill="#292929"><path d="m6 18v-13h9c.5523 0 1-.44772 1-1s-.4477-1-1-1h-10c-.55229 0-1 .44772-1 1v14c0 1.6569 1.34315 3 3 3h8c.5523 0 1-.4477 1-1s-.4477-1-1-1h-8c-.55228 0-1-.4477-1-1z"/><path d="m15.293 8.29301c.3905-.39052 1.0235-.39052 1.414 0l3 2.99999c.3906.3905.3906 1.0236 0 1.4141l-3 3c-.3905.3905-1.0235.3905-1.414 0-.3906-.3905-.3906-1.0236 0-1.4141l1.2929-1.293h-7.5859c-.55228 0-1-.4477-1-1 0-.5522.44772-1 1-1h7.5859l-1.2929-1.29292c-.3906-.39053-.3906-1.02354 0-1.41407z"/></g></svg>