<svg fill="none" height="24" viewBox="0 0 24 24" width="24" xmlns="http://www.w3.org/2000/svg"><path d="m18 11c0-3.86599-3.134-7-7-7-3.86599 0-7 3.13401-7 7 0 3.866 3.13401 7 7 7 1.9333 0 3.6823-.782 4.9502-2.0498 1.2678-1.2679 2.0498-3.0169 2.0498-4.9502zm2 0c0 2.1245-.7398 4.0761-1.9707 5.6152l3.6777 3.6778c.3906.3905.3906 1.0235 0 1.414-.3905.3906-1.0235.3906-1.414 0l-3.6778-3.6777c-1.5391 1.2309-3.4907 1.9707-5.6152 1.9707-4.97056 0-9-4.0294-9-9 0-4.97056 4.02944-9 9-9 4.9706 0 9 4.02944 9 9z" fill="#292929"/></svg>