<svg fill="none" height="24" viewBox="0 0 24 24" width="24" xmlns="http://www.w3.org/2000/svg"><g fill="#292929"><path d="m12.0098 9.5c.8284 0 1.5.6716 1.5 1.5v.0098c0 .8284-.6716 1.5-1.5 1.5h-.0098c-.8284 0-1.5-.6716-1.5-1.5v-.0098c0-.8284.6716-1.5 1.5-1.5z"/><path d="m5.79299 4.79299c3.42809-3.42809 8.98601-3.42809 12.41411 0 3.428 3.42809 3.428 8.98601 0 12.41411l-5.5 5.5c-.1876.1875-.4419.2929-.7071.2929s-.5195-.1054-.707-.2929l-5.50001-5.5c-3.42809-3.4281-3.42809-8.98602 0-12.41411zm11.00001 1.41406c-2.6471-2.64704-6.93891-2.64704-9.58595 0s-2.64704 6.93895 0 9.58595l4.79295 4.793 4.793-4.793c2.647-2.647 2.647-6.93891 0-9.58595z"/></g></svg>