<svg fill="none" height="24" viewBox="0 0 24 24" width="24" xmlns="http://www.w3.org/2000/svg"><path d="m19 13c0-1.6568-1.3431-3-3-3h-8.58594l1.29297 1.293c.39053.3905.39053 1.0236 0 1.4141-.39052.3905-1.02354.3905-1.41406 0l-3-3.00002c-.39053-.39053-.39053-1.02354 0-1.41406l3-3c.39052-.39053 1.02354-.39053 1.41406 0 .39053.39052.39053 1.02353 0 1.41406l-1.29297 1.29297h8.58594c2.7614 0 5 2.23855 5 4.99995 0 2.7615-2.2386 5-5 5h-11c-.55228 0-1-.4477-1-1 0-.5522.44772-1 1-1h11c1.6569 0 3-1.3431 3-3z" fill="#292929"/></svg>