<svg fill="none" height="24" viewBox="0 0 24 24" width="24" xmlns="http://www.w3.org/2000/svg"><g fill="#292929"><path d="m15.8792 3.70738c1.1715-1.17136 3.0706-1.17137 4.2422 0l.1718.17188c1.171 1.17156 1.1713 3.07078 0 4.24219l-11.58589 11.58595c-.12809.1281-.28912.2187-.46485.2627l-4 1c-.34052.085-.7009-.0147-.94921-.2627-.24826-.2483-.34767-.6086-.2627-.9492l1-4 .04102-.1289c.05012-.1255.1255-.2398.22168-.336zm-9.97658 12.80472-.5293 2.1142 2.11524-.5283 9.09764-9.09765-1.5859-1.58594zm12.80468-11.39065c-.3905-.39032-1.0236-.39032-1.4141 0l-.8789.8789 1.586 1.58594.8789-.87891c.3902-.39035.3899-1.02354 0-1.41406z"/><path d="m21 19c.5523 0 1 .4477 1 1s-.4477 1-1 1h-8c-.5523 0-1-.4477-1-1s.4477-1 1-1z"/></g></svg>