<svg fill="none" height="24" viewBox="0 0 24 24" width="24" xmlns="http://www.w3.org/2000/svg"><g fill="#292929"><path d="m5 6v3c0 .55228-.44772 1-1 1s-1-.44772-1-1v-3c0-1.65686 1.34315-3 3-3h3c.55229 0 1 .44772 1 1s-.44771 1-1 1h-3c-.55228 0-1 .44771-1 1z"/><path d="m19 18v-3c0-.5523.4477-1 1-1s1 .4477 1 1v3c0 1.6569-1.3431 3-3 3h-3c-.5523 0-1-.4477-1-1s.4477-1 1-1h3c.5523 0 1-.4477 1-1z"/><path d="m18 5h-3c-.5523 0-1-.44772-1-1s.4477-1 1-1h3c1.6569 0 3 1.34315 3 3v3c0 .55228-.4477 1-1 1s-1-.44772-1-1v-3c0-.55228-.4477-1-1-1z"/><path d="m6 19h3c.55228 0 1 .4477 1 1s-.44772 1-1 1h-3c-1.65685 0-3-1.3431-3-3v-3c0-.5523.44772-1 1-1s1 .4477 1 1v3c0 .5523.44772 1 1 1z"/></g></svg>