<svg fill="none" height="24" viewBox="0 0 24 24" width="24" xmlns="http://www.w3.org/2000/svg"><g fill="#292929"><path d="m13.0001 17c0 .5523-.4477 1-1 1s-1-.4477-1-1v-10.58594l-3.29299 3.29297c-.39053.39057-1.02354.39057-1.41407 0-.39052-.39052-.39052-1.02354 0-1.41406l4.99996-5c.3906-.39053 1.0236-.39053 1.4141 0l5 5c.3905.39052.3905 1.02354 0 1.41406-.3905.39057-1.0235.39057-1.4141 0l-3.2929-3.29297z"/><path d="m18 19c.5523 0 1 .4477 1 1s-.4477 1-1 1h-12c-.55228 0-1-.4477-1-1s.44772-1 1-1z"/></g></svg>