<svg fill="none" height="24" viewBox="0 0 24 24" width="24" xmlns="http://www.w3.org/2000/svg"><g fill="#292929"><path d="m13 17v-6c0-.5523.4477-1 1-1s1 .4477 1 1v6c0 .5523-.4477 1-1 1s-1-.4477-1-1z"/><path d="m9 17v-6c0-.5523.44772-1 1-1 .5523 0 1 .4477 1 1v6c0 .5523-.4477 1-1 1-.55228 0-1-.4477-1-1z"/><path d="m15 2c.3788 0 .7251.21395.8945.55273l1.7237 3.44727h2.3818c.5523 0 1 .44772 1 1s-.4477 1-1 1h-1v11c0 1.6569-1.3431 3-3 3h-8c-1.65685 0-3-1.3431-3-3v-11h-1c-.55228 0-1-.44772-1-1s.44772-1 1-1h2.38184l1.72363-3.44727.07129-.12109c.18493-.26796.49179-.43164.82324-.43164zm-8 17c0 .5523.44772 1 1 1h8c.5523 0 1-.4477 1-1v-11h-10zm1.61816-13h6.76364l-1-2h-4.76364z"/></g></svg>