<svg fill="none" height="24" viewBox="0 0 24 24" width="24" xmlns="http://www.w3.org/2000/svg"><path d="m11 22v-1h-5c-1.65685 0-3-1.3431-3-3v-12c0-1.65685 1.34315-3 3-3h5v-1c0-.55228.4477-1 1-1s1 .44772 1 1v1c.5523 0 1 .44772 1 1s-.4477 1-1 1v14c.5523 0 1 .4477 1 1s-.4477 1-1 1v1c0 .5523-.4477 1-1 1s-1-.4477-1-1zm8-4v-1c0-.5523.4477-1 1-1s1 .4477 1 1v1c0 1.6569-1.3431 3-3 3h-1c-.5523 0-1-.4477-1-1s.4477-1 1-1h1c.5523 0 1-.4477 1-1zm0-5v-2c0-.5523.4477-1 1-1s1 .4477 1 1v2c0 .5523-.4477 1-1 1s-1-.4477-1-1zm0-6v-1c0-.55228-.4477-1-1-1h-1c-.5523 0-1-.44772-1-1s.4477-1 1-1h1c1.6569 0 3 1.34315 3 3v1c0 .55228-.4477 1-1 1s-1-.44772-1-1zm-14 11c0 .5523.44772 1 1 1h5v-14h-5c-.55228 0-1 .44772-1 1z" fill="#292929"/></svg>