<svg fill="none" height="24" viewBox="0 0 24 24" width="24" xmlns="http://www.w3.org/2000/svg"><g fill="#292929"><path d="m9 13c1.3059 0 2.4141.8353 2.8262 2h8.1738c.5523 0 1 .4477 1 1s-.4477 1-1 1h-8.1738c-.4121 1.1647-1.5203 2-2.8262 2-1.30585 0-2.41406-.8353-2.82617-2h-2.17383c-.55228 0-1-.4477-1-1s.44772-1 1-1h2.17383c.41211-1.1647 1.52032-2 2.82617-2zm0 2c-.55228 0-1 .4477-1 1s.44772 1 1 1 1-.4477 1-1-.44772-1-1-1z"/><path d="m15 5c1.3059 0 2.4141.83532 2.8262 2h2.1738c.5523 0 1 .44772 1 1s-.4477 1-1 1h-2.1738c-.4121 1.1647-1.5203 2-2.8262 2s-2.4141-.8353-2.8262-2h-8.1738c-.55228 0-1-.44772-1-1s.44772-1 1-1h8.1738c.4121-1.16468 1.5203-2 2.8262-2zm0 2c-.5523 0-1 .44772-1 1s.4477 1 1 1 1-.44772 1-1-.4477-1-1-1z"/></g></svg>