<svg fill="none" height="24" viewBox="0 0 24 24" width="24" xmlns="http://www.w3.org/2000/svg"><g fill="#292929"><path d="m15.7068 5.2926c.3905.39053.3905 1.02369 0 1.41422l-2.9997 2.99967c-.3905.39051-1.0237.39051-1.4142 0l-2.99969-2.99967c-.39052-.39053-.39052-1.02369 0-1.41422l2.99969-2.99968c.3905-.39052 1.0237-.39052 1.4142 0zm-5.2923.70711 1.5855 1.58546 1.5855-1.58546-1.5855-1.58547z"/><path d="m15.7068 17.2926c.3905.3905.3905 1.0237 0 1.4142l-2.9997 2.9997c-.3905.3905-1.0237.3905-1.4142 0l-2.99969-2.9997c-.39052-.3905-.39052-1.0237 0-1.4142l2.99969-2.9997c.3905-.3905 1.0237-.3905 1.4142 0zm-5.2923.7071 1.5855 1.5855 1.5855-1.5855-1.5855-1.5855z"/><path d="m21.7068 11.2926c.3905.3905.3905 1.0237 0 1.4142l-2.9997 2.9997c-.3905.3905-1.0237.3905-1.4142 0l-2.9997-2.9997c-.3905-.3905-.3905-1.0237 0-1.4142l2.9997-2.99968c.3905-.39052 1.0237-.39052 1.4142 0zm-5.2923.7071 1.5855 1.5855 1.5855-1.5855-1.5855-1.5855z"/><path d="m9.70679 11.2926c.39051.3905.39051 1.0237 0 1.4142l-2.99968 2.9997c-.39053.3905-1.02369.3905-1.41422 0l-2.99968-2.9997c-.39052-.3905-.39052-1.0237 0-1.4142l2.99968-2.99968c.39053-.39052 1.02369-.39052 1.41422 0zm-5.29226.7071 1.58547 1.5855 1.58547-1.5855-1.58547-1.5855z"/></g></svg>