<svg fill="none" height="24" viewBox="0 0 24 24" width="24" xmlns="http://www.w3.org/2000/svg"><path d="m6 5c-.55228 0-1 .44772-1 1s.44772 1 1 1 1-.44772 1-1-.44772-1-1-1zm-2 1c0-1.10457.89543-2 2-2 .93192 0 1.71497.63739 1.93699 1.5h8.12601c.222-.86261 1.0051-1.5 1.937-1.5 1.1046 0 2 .89543 2 2 0 .93192-.6374 1.71497-1.5 1.93699v8.12601c.8626.222 1.5 1.0051 1.5 1.937 0 1.1046-.8954 2-2 2-.9319 0-1.715-.6374-1.937-1.5h-8.12601c-.22202.8626-1.00507 1.5-1.93699 1.5-1.10457 0-2-.8954-2-2 0-.9319.63739-1.715 1.5-1.937v-8.12601c-.86261-.22202-1.5-1.00507-1.5-1.93699zm2.5 1.93699v8.12601c.7028.1809 1.2561.7342 1.43699 1.437h8.12601c.1809-.7028.7342-1.2561 1.437-1.437v-8.12601c-.7028-.18089-1.2561-.73419-1.437-1.43699h-8.12601c-.18089.7028-.73419 1.2561-1.43699 1.43699zm11.5-2.93699c-.5523 0-1 .44772-1 1s.4477 1 1 1 1-.44772 1-1-.4477-1-1-1zm-12 12c-.55228 0-1 .4477-1 1s.44772 1 1 1 1-.4477 1-1-.44772-1-1-1zm12 0c-.5523 0-1 .4477-1 1s.4477 1 1 1 1-.4477 1-1-.4477-1-1-1z" fill="#292929"/></svg>