<svg fill="none" height="24" viewBox="0 0 24 24" width="24" xmlns="http://www.w3.org/2000/svg"><g fill="#292929"><path d="m12 9c.8284 0 1.5-.67157 1.5-1.5s-.6716-1.5-1.5-1.5-1.5.67157-1.5 1.5.6716 1.5 1.5 1.5z"/><path d="m16 12c.8284 0 1.5-.6716 1.5-1.5 0-.82843-.6716-1.5-1.5-1.5s-1.5.67157-1.5 1.5c0 .8284.6716 1.5 1.5 1.5z"/><path d="m9.5 11c0 .8284-.67157 1.5-1.5 1.5s-1.5-.6716-1.5-1.5.67157-1.5 1.5-1.5 1.5.6716 1.5 1.5z"/><path d="m10 17c.8284 0 1.5-.6716 1.5-1.5s-.6716-1.5-1.5-1.5c-.82843 0-1.5.6716-1.5 1.5s.67157 1.5 1.5 1.5z"/><path d="m20 12c0 3.1506-1.8664 2.585-3.5667 2.0697-1.0137-.3072-1.9684-.5964-2.4333-.0697-.6027.6829-.4749 1.8186-.351 2.9194.1774 1.5762.3467 3.0806-1.649 3.0806-4.41828 0-8-3.5817-8-8 0-4.41828 3.58172-8 8-8 4.4183 0 8 3.58172 8 8zm-8 7c.6111 0 .6536-.1714.6548-.1762.0781-.1457.124-.4643.0699-1.1185-.0139-.1683-.0365-.3712-.061-.5916-.0516-.4638-.1118-1.0048-.1179-1.4621-.0095-.7061.0835-1.6097.7045-2.3133.3682-.4173.8447-.5784 1.2714-.6185.4044-.038.8127.0263 1.1598.1042.3432.077.7024.1858 1.0253.2837l.0286.0087c.3454.1046.6571.1983.9525.2654.6531.1481.904.0831.9914.0243.0381-.0257.3207-.2449.3207-1.4061 0-3.86599-3.134-7-7-7-3.86599 0-7 3.13401-7 7 0 3.866 3.13401 7 7 7z"/></g></svg>