<svg fill="none" height="24" viewBox="0 0 24 24" width="24" xmlns="http://www.w3.org/2000/svg"><g fill="#292929"><g clip-rule="evenodd" fill-rule="evenodd"><path d="m4 14.5c0-.8284.67157-1.5 1.5-1.5h1c.82843 0 1.5.6716 1.5 1.5v1c0 .8284-.67157 1.5-1.5 1.5h-1c-.82843 0-1.5-.6716-1.5-1.5zm1.5-.5c-.27614 0-.5.2239-.5.5v1c0 .2761.22386.5.5.5h1c.27614 0 .5-.2239.5-.5v-1c0-.2761-.22386-.5-.5-.5z"/><path d="m16 14.5c0-.8284.6716-1.5 1.5-1.5h1c.8284 0 1.5.6716 1.5 1.5v1c0 .8284-.6716 1.5-1.5 1.5h-1c-.8284 0-1.5-.6716-1.5-1.5zm1.5-.5c-.2761 0-.5.2239-.5.5v1c0 .2761.2239.5.5.5h1c.2761 0 .5-.2239.5-.5v-1c0-.2761-.2239-.5-.5-.5z"/><path d="m10 8.5c0-.82843.6716-1.5 1.5-1.5h1c.8284 0 1.5.67157 1.5 1.5v1c0 .8284-.6716 1.5-1.5 1.5h-1c-.8284 0-1.5-.6716-1.5-1.5zm1.5-.5c-.2761 0-.5.22386-.5.5v1c0 .27614.2239.5.5.5h1c.2761 0 .5-.22386.5-.5v-1c0-.27614-.2239-.5-.5-.5z"/></g><path d="m10 8.5h-4.13378c-.17291-.2989-.49608-.5-.86622-.5-.55228 0-1 .44772-1 1s.44772 1 1 1c.37014 0 .69331-.2011.86622-.5h2.66809c-1.27388.8044-2.24888 2.0391-2.72081 3.5h.6865c.1235 0 .24351.0149.35833.0431.55729-1.4634 1.72136-2.6275 3.18477-3.18477-.0282-.11482-.0431-.23483-.0431-.35833z"/><path d="m13.9569 9.85833c.0282-.11482.0431-.23483.0431-.35833v-1h4.1338c.1729-.2989.4961-.5.8662-.5.5523 0 1 .44772 1 1s-.4477 1-1 1c-.3701 0-.6933-.2011-.8662-.5h-2.6681c1.2739.8044 2.2489 2.0391 2.7208 3.5h-.6865c-.1235 0-.2435.0149-.3583.0431-.5573-1.4634-1.7214-2.6275-3.1848-3.18477z"/></g></svg>