<svg fill="none" height="24" viewBox="0 0 24 24" width="24" xmlns="http://www.w3.org/2000/svg"><g fill="#292929"><path d="m4 10c0-3.31371 2.68629-6 6-6 3.3137 0 6 2.68629 6 6 0 3.3137-2.6863 6-6 6-3.31371 0-6-2.6863-6-6z"/><path d="m16.9291 9h1.5709c.2761 0 .5.22386.5.5v9c0 .2761-.2239.5-.5.5h-9c-.27614 0-.5-.2239-.5-.5v-1.5709c-.34193-.0489-.67588-.1225-1-.219v1.7899c0 .8284.67157 1.5 1.5 1.5h9c.8284 0 1.5-.6716 1.5-1.5v-9c0-.82843-.6716-1.5-1.5-1.5h-1.7899c.0965.32412.1701.65807.219 1z"/></g></svg>