<svg fill="none" height="24" viewBox="0 0 24 24" width="24" xmlns="http://www.w3.org/2000/svg"><path d="m8.75 21.25h6.5v-3.5h-2.25c-.4142 0-.75-.3358-.75-.75s.3358-.75.75-.75h2.25v-3.5h-2.25c-.4142 0-.75-.3358-.75-.75s.3358-.75.75-.75h2.25v-3.5h-2.25c-.4142 0-.75-.33579-.75-.75s.3358-.75.75-.75h2.25v-3.5h-6.5zm8 .1504c-.0002.7453-.6043 1.3494-1.3496 1.3496h-6.80079c-.74528-.0002-1.3494-.6043-1.34961-1.3496v-18.80079c.00021-.74528.60433-1.3494 1.34961-1.34961h6.80079c.7453.00021 1.3494.60433 1.3496 1.34961z" fill="#292929"/></svg>