<svg fill="none" height="24" viewBox="0 0 24 24" width="24" xmlns="http://www.w3.org/2000/svg"><g fill="#292929"><path d="m3.41113 19.75c-1.19045 0-1.79833-1.4286-.97265-2.2861l13.46582-13.98441c.2873-.29818.7622-.30678 1.0605-.01953.2982.28734.3068.76224.0196 1.06055l-13.2217 13.72949h18.2373c.4142 0 .75.3358.75.75s-.3358.75-.75.75z"/><path d="m20.1064 16.7422c-.4099.0586-.7899-.2259-.8487-.6357-.2478-1.7348-.4898-2.9223-.8994-4.0342-.4086-1.109-.9976-2.17898-1.9824-3.65623-.2298-.34465-.1366-.81028.208-1.04004.3447-.22977.8103-.13664 1.0401.20801 1.015 1.52261 1.6761 2.70286 2.1425 3.96876.4653 1.2629.7235 2.5759.9756 4.3408.0586.4099-.2259.7899-.6357.8486z"/></g></svg>