<svg fill="none" height="24" viewBox="0 0 24 24" width="24" xmlns="http://www.w3.org/2000/svg"><g fill="#292929"><path clip-rule="evenodd" d="m21.3498 8.63215c-1.0042 1.06449-2.6892 1.08907-3.724.05432l-2.3637-2.36369c-1.0067-1.00667-1.0148-2.6363-.0181-3.65291 1.0107-1.03099 2.6684-1.03922 3.6893-.01832l2.3637 2.3637c.993.99293 1.0163 2.59543.0528 3.6169z" fill-rule="evenodd"/><path d="m12.1866 5.56443c.504-.2075 1.0834-.09142 1.4688.29394l4.4043 4.40433c.3616.3615.4879.8967.3262 1.3818l-1.9053 5.7158c-.1393.4178-.4734.7416-.8955.8672l-11.67776 3.4717c-1.0468.3111-2.01024-.6847-1.66504-1.7207l3.79102-11.37403c.12407-.37221.40381-.67288.7666-.82227zm-4.75191 3.5791-3.12989 9.38767 4.38672-4.3867c-.39854-.836-.25379-1.8663.43848-2.5586.8786-.8785 2.303-.8784 3.1816 0 .8787.8787.8787 2.304 0 3.1826-.6927.6925-1.7233.836-2.55953.4366l-4.54102 4.541 9.87105-2.9346 1.8516-5.5537-4.2685-4.26857zm3.81641 3.50297c-.2929-.2927-.7677-.2927-1.0606 0-.29277.2928-.29262.7676 0 1.0605.2929.2929.7677.2929 1.0606 0 .2928-.2929.2928-.7677 0-1.0605z"/></g></svg>