<svg fill="none" height="24" viewBox="0 0 24 24" width="24" xmlns="http://www.w3.org/2000/svg"><path d="m11.9999 4c5.116 0 9.1968 3.19381 10.9316 7.6357.0914.234.0914.4946 0 .7286-1.7348 4.4419-5.8156 7.6357-10.9316 7.6357-5.11595 0-9.19677-3.1938-10.93163-7.6357-.091352-.234-.091352-.4946 0-.7286 1.73486-4.44189 5.81568-7.6357 10.93163-7.6357zm0 2c-4.07435 0-7.38081 2.44349-8.91894 6 1.53813 3.5565 4.84459 6 8.91894 6 4.0742 0 7.3798-2.4437 8.918-6-1.5382-3.55632-4.8438-6-8.918-6zm2 6c0-1.1046-.8954-2-2-2s-1.99999.8954-1.99999 2 .89539 2 1.99999 2 2-.8954 2-2zm2 0c0 2.2091-1.7909 4-4 4-2.20913 0-3.99999-1.7909-3.99999-4 0-2.20914 1.79086-4 3.99999-4 2.2091 0 4 1.79086 4 4z" fill="#292929"/></svg>