<svg fill="none" height="24" viewBox="0 0 24 24" width="24" xmlns="http://www.w3.org/2000/svg"><path d="m3.29272 3.29309c.39052-.39051 1.02354-.39048 1.41407 0l16.00001 16.00001c.3905.3905.3905 1.0235 0 1.4141-.3905.3904-1.0236.3904-1.4141 0l-1.9844-1.9844c-1.5786.8176-3.3741 1.2773-5.3085 1.2773-5.11592 0-9.19684-3.1938-10.93168-7.6357-.091339-.2339-.091309-.4947 0-.7285.81962-2.09859 2.16344-3.91779 3.89746-5.2559l-1.67286-1.67285c-.39044-.39049-.39039-1.02354 0-1.41406zm3.09864 4.5127c-1.43154 1.0446-2.57396 2.49171-3.31055 4.19431 1.53811 3.5565 4.84466 6 8.91899 6 1.3752 0 2.6558-.2781 3.8085-.7773l-1.7783-1.7783c-.5952.3515-1.2891.5556-2.0302.5556-2.20909-.0001-4-1.7909-4.00004-4 0-.7413.20298-1.4359.55468-2.03123zm5.60844-3.80567c5.1159 0 9.1967 3.19381 10.9316 7.63578.0913.2339.0913.4946 0 .7285-.4275 1.0945-.9976 2.1131-1.6904 3.0273-.3336.4398-.9604.5267-1.4004.1934-.4401-.3336-.5268-.9613-.1934-1.4014.5028-.6634.9299-1.3964 1.2705-2.1836-1.5382-3.55629-4.8437-5.99998-8.9179-5.99998-.3931.00001-.7784.02258-1.1543.06641-.5482.06365-1.04423-.32883-1.10844-.87695-.06394-.54846.32854-1.04526.87694-1.10938.4533-.05285.9159-.08007 1.3858-.08008zm-1.9307 7.48338c-.0439.1648-.06934.3377-.06934.5166.00004 1.1045.89554 1.9999 2.00004 2 .1786 0 .351-.0265.5156-.0703z" fill="#292929"/></svg>